<svg preserveAspectRatio="none" width="100%" height="100%" overflow="visible" style="display: block;" viewBox="0 0 48 48" fill="none" xmlns="http://www.w3.org/2000/svg">
<g id="Group 18">
<circle id="Ellipse 172" cx="24" cy="24" r="24" fill="var(--fill-0, #FFFCF3)"/>
<g id="down arrow / 24 / Outline">
<path id="Vector" d="M20.2267 17.3333C19.9783 17.5831 19.8389 17.9211 19.8389 18.2733C19.8389 18.6256 19.9783 18.9635 20.2267 19.2133L24.9467 24L20.2267 28.72C19.9783 28.9698 19.8389 29.3078 19.8389 29.66C19.8389 30.0122 19.9783 30.3502 20.2267 30.6C20.3506 30.725 20.4981 30.8242 20.6606 30.8919C20.823 30.9595 20.9973 30.9944 21.1733 30.9944C21.3493 30.9944 21.5236 30.9595 21.6861 30.8919C21.8486 30.8242 21.996 30.725 22.12 30.6L27.7733 24.9467C27.8983 24.8227 27.9975 24.6752 28.0652 24.5128C28.1329 24.3503 28.1677 24.176 28.1677 24C28.1677 23.824 28.1329 23.6497 28.0652 23.4872C27.9975 23.3248 27.8983 23.1773 27.7733 23.0533L22.12 17.3333C21.996 17.2084 21.8486 17.1092 21.6861 17.0415C21.5236 16.9738 21.3493 16.9389 21.1733 16.9389C20.9973 16.9389 20.823 16.9738 20.6606 17.0415C20.4981 17.1092 20.3506 17.2084 20.2267 17.3333Z" fill="var(--fill-0, #0A033C)" fill-opacity="0.7"/>
</g>
</g>
</svg>
