<svg preserveAspectRatio="none" width="100%" height="100%" overflow="visible" style="display: block;" viewBox="0 0 29.9999 30.436" fill="none" xmlns="http://www.w3.org/2000/svg">
<g id="Group">
<path id="Vector" d="M15 0C6.71572 0 0 6.81333 0 15.218C0 23.6227 6.71572 30.436 15 30.436C23.2842 30.436 29.9999 23.6227 29.9999 15.218C29.9911 6.81709 23.2806 0.0089805 15 0ZM21.317 15.7029C21.2132 15.9142 21.0444 16.0855 20.836 16.1909V16.1963L12.2646 20.5443C11.7353 20.8127 11.0918 20.5949 10.8272 20.0579C10.752 19.9052 10.7133 19.7367 10.7142 19.566V10.87C10.714 10.2697 11.1934 9.78282 11.7852 9.7825C11.9516 9.78244 12.1158 9.82167 12.2646 9.89715L20.836 14.2452C21.3656 14.5129 21.581 15.1656 21.317 15.7029Z" fill="var(--fill-0, #00C968)"/>
</g>
</svg>
