<svg width="48" height="48" viewBox="0 0 48 48" fill="none" xmlns="http://www.w3.org/2000/svg">
  <!-- Antenna left ball -->
  <svg x="25.74" y="5.63" width="4.46" height="4.46" viewBox="0 0 4.45931 4.45931">
    <path d="M2.22966 4.45931C3.46106 4.45931 4.45931 3.46106 4.45931 2.22966C4.45931 0.998251 3.46106 0 2.22966 0C0.99825 0 0 0.998251 0 2.22966C0 3.46106 0.99825 4.45931 2.22966 4.45931Z" fill="#223661"/>
  </svg>

  <!-- Antenna right ball -->
  <svg x="38.48" y="5.63" width="4.46" height="4.46" viewBox="0 0 4.45931 4.45931">
    <path d="M2.22966 4.45931C3.46106 4.45931 4.45931 3.46106 4.45931 2.22966C4.45931 0.998251 3.46106 0 2.22966 0C0.998253 0 0 0.998251 0 2.22966C0 3.46106 0.998253 4.45931 2.22966 4.45931Z" fill="#223661"/>
  </svg>

  <!-- Antenna left stem -->
  <svg x="27.27" y="7.77" width="3.97" height="10.04" viewBox="0 0 3.96664 10.0441">
    <path d="M3.26361 10.0441C2.8753 10.0441 2.56048 9.72935 2.56048 9.34094C2.56048 8.49288 2.24942 6.62219 1.56636 4.51891C1.14083 3.20876 0.630454 2.00838 0.0903599 1.04782C-0.0999526 0.709288 0.0201411 0.280569 0.358672 0.0902569C0.697204 -0.0998681 1.12583 0.0201319 1.31614 0.358569C1.90939 1.41382 2.44348 2.66735 2.9038 4.08457C3.53951 6.04216 3.96664 8.15454 3.96664 9.34085C3.96673 9.72935 3.65192 10.0441 3.26361 10.0441Z" fill="#3F4E6A"/>
  </svg>

  <!-- Antenna right stem -->
  <svg x="37.45" y="7.77" width="3.97" height="10.04" viewBox="0 0 3.96664 10.0441">
    <path d="M0.703125 10.0441C0.314812 10.0441 0 9.7294 0 9.34099C0 8.15468 0.427126 6.04231 1.06284 4.08471C1.52316 2.66749 2.05725 1.41396 2.6505 0.358714C2.84081 0.0201827 3.26935 -0.100005 3.60797 0.0904015C3.9465 0.280714 4.0666 0.709339 3.87628 1.04796C3.33628 2.00853 2.82591 3.2089 2.40028 4.51906C1.71722 6.62234 1.40616 8.49303 1.40616 9.34109C1.40625 9.7294 1.09144 10.0441 0.703125 10.0441Z" fill="#3F4E6A"/>
  </svg>

  <!-- Wing left (light blue outer) -->
  <svg x="13.11" y="8.88" width="14.14" height="14.14" viewBox="0 0 14.1401 14.1402">
    <path d="M13.2843 13.2844C11.879 14.6897 9.14609 14.1829 6.60949 13.0665C4.59406 12.1796 2.70256 10.9078 1.69934 9.90462C0.520899 8.72618 -0.0446007 7.16693 0.00274306 5.62305C0.0464306 4.19843 0.612024 2.78674 1.69934 1.69934C2.78674 0.61193 4.19834 0.0464306 5.62296 0.00274307C7.16693 -0.0446007 8.72609 0.520899 9.90452 1.69934C10.9077 2.70255 12.1795 4.59405 13.0664 6.60949C14.1828 9.14618 14.6896 11.8791 13.2843 13.2844Z" fill="#81DDFD"/>
  </svg>

  <!-- Wing left inner -->
  <svg x="17.83" y="11.96" width="9.42" height="11.07" viewBox="0 0 9.42115 11.0654">
    <path d="M6.32916 0C3.78881 1.73006 1.81997 4.14853 0.662813 7.01147C0.397032 7.66913 0.176625 8.34366 0 9.03206C0.600187 9.37744 1.23853 9.70491 1.89056 9.99188C4.42716 11.1082 7.16006 11.615 8.56538 10.2097C9.97069 8.80434 9.46388 6.07144 8.3476 3.53484C7.77619 2.2365 7.04522 0.991125 6.32916 0Z" fill="#30CDFA"/>
  </svg>

  <!-- Wing right (light blue outer) -->
  <svg x="28.24" y="12.38" width="19.78" height="23.91" viewBox="0 0 19.7778 23.9078">
    <path d="M18.8403 7.85822C17.6744 4.97353 15.461 2.62509 12.425 1.26938C10.6034 0.456001 8.48582 0 6.12079 0C6.0186 0 5.91745 0.00196889 5.8161 0.00365639C-2.15284 5.11266 -2.10606 19.2946 7.03035 23.9078C8.76182 23.8313 10.4055 23.5365 11.9011 23.0353C14.7954 22.0654 17.1366 20.3258 18.4929 17.9143C19.3172 16.4489 19.7778 14.7354 19.7778 12.7958C19.7778 11.0457 19.4544 9.37753 18.8403 7.85822Z" fill="#F7E969"/>
  </svg>

  <!-- Wing right inner -->
  <svg x="28.24" y="12.38" width="14.57" height="23.93" viewBox="0 0 14.5667 23.925">
    <path d="M13.3524 0C11.1101 0.0375 9.09563 0.487501 7.35281 1.26572C4.31691 2.62134 2.10347 4.96978 0.9375 7.85456C0.323437 9.37387 0 11.042 0 12.7922C0 14.7318 0.460594 16.4453 1.28484 17.9107C2.64122 20.3221 4.98234 22.0618 7.87659 23.0317C9.63206 23.6199 11.591 23.925 13.657 23.925C13.9628 23.925 14.2659 23.9175 14.5667 23.9042C10.1213 18.2444 10.641 6.34003 13.3524 0Z" fill="#F8D071"/>
  </svg>

  <!-- Wing right highlight -->
  <svg x="8.25" y="14.23" width="12.07" height="11.6" viewBox="0 0 12.0729 11.604">
    <path d="M9.05616 11.1386C11.1697 9.00938 12.2244 4.42228 12.0553 1.45931C11.8753 1.38225 11.6934 1.30763 11.5098 1.23619C9.4575 0.438188 7.22072 0 5.802 0C4.13541 0 2.63306 0.702657 1.57481 1.82784C0.598312 2.86613 0 4.26422 0 5.802C0 7.33978 0.598312 8.73788 1.57481 9.77616C2.63306 10.9013 4.1355 11.604 5.802 11.604C6.66084 11.604 7.82006 11.4424 9.05616 11.1386Z" fill="#A3E6FF"/>
  </svg>

  <!-- Wing extra -->
  <svg x="17.31" y="15.69" width="7.33" height="9.68" viewBox="0 0 7.32881 9.67922">
    <path d="M7.32881 4.34269C7.32881 2.49656 5.35181 1.00744 3.00047 0C2.26884 1.00856 1.65722 2.10872 1.18228 3.28369C0.375374 5.28028 -0.0260635 7.437 0.00131146 9.67922C0.806999 9.48122 1.64512 9.22331 2.45503 8.90841C5.03794 7.90425 7.32881 6.33009 7.32881 4.34269Z" fill="#81DDFD"/>
  </svg>

  <!-- Body yellow back -->
  <svg x="5.1" y="24.62" width="13.5" height="17.74" viewBox="0 0 13.5024 17.7436">
    <path d="M12.5615 4.1286C10.8402 2.58397 3.47316 -0.280745 1.01606 0.0222548C0.937312 0.203942 0.862594 0.3876 0.792375 0.573319C0.279469 1.93148 0 3.39622 0 4.92322C0 6.45032 0.279562 7.91497 0.792375 9.27322C1.95984 12.3649 4.33631 14.9049 7.37681 16.3724C9.19397 17.2496 11.2482 17.7436 13.4233 17.7436C13.4497 17.7436 13.476 17.7427 13.5024 17.7425C12.9834 14.4869 12.5863 9.28522 12.5615 4.1286Z" fill="#F7E969"/>
  </svg>

  <!-- Body stripe middle -->
  <svg x="6.12" y="16.73" width="12.49" height="12.48" viewBox="0 0 12.4864 12.4828">
    <path d="M12.4864 0.00112438C12.4599 0.000936882 12.4338 0 12.4073 0C10.2323 0 8.17791 0.494156 6.36084 1.37119C3.50306 2.75062 1.23206 5.0775 0 7.91934C0.348 8.51606 0.764157 9.07734 1.24688 9.59044C2.97553 11.4286 5.41378 12.4828 7.93659 12.4828C8.98828 12.4828 10.2458 12.3179 11.5454 12.0257C11.5238 7.5495 11.7827 3.10706 12.4864 0.00112438Z" fill="#F8D071"/>
  </svg>

  <!-- Body dark stripe -->
  <svg x="12.48" y="27.47" width="15.4" height="14.9" viewBox="0 0 15.3986 14.9008">
    <path d="M7.84631 0.269706C5.83116 -0.257451 1.55184 -0.11092 0.00787497 1.60714C0.00365622 1.76483 0 1.92261 0 2.08143C0 5.24474 0.845156 8.18343 2.29247 10.6212C3.30356 12.3241 4.60931 13.781 6.12525 14.9008C8.271 14.889 10.2977 14.3972 12.0927 13.5307C13.3136 12.9414 14.4272 12.1789 15.3986 11.2775C15.2683 11.2367 9.14484 1.61108 7.84631 0.269706Z" fill="#3F4E6A"/>
  </svg>

  <!-- Body main -->
  <svg x="12.48" y="16.73" width="19.46" height="22.02" viewBox="0 0 19.4617 22.0153">
    <path d="M12.0848 1.37006C10.2898 0.503625 8.26312 0.0118125 6.11737 0C4.60134 1.11966 3.29559 2.57672 2.28459 4.27959C0.909938 6.59494 0.0799687 9.36262 0 12.3451C0.515062 12.435 1.03941 12.4819 1.5675 12.4819C2.64 12.4819 3.92625 12.3113 5.25328 12.0081C5.54044 13.1363 5.96916 14.2098 6.53775 15.2206C8.457 18.6328 11.684 20.8603 15.3907 22.0153C16.8386 20.6719 17.9707 19.0195 18.6693 17.1694C19.1822 15.8112 19.4617 14.3465 19.4617 12.8194C19.4617 11.2923 19.1821 9.82763 18.6693 8.46938C17.5018 5.37759 15.1253 2.83772 12.0848 1.37006Z" fill="#223661"/>
  </svg>

  <!-- Stinger -->
  <svg x="0" y="22.67" width="7.61" height="13.77" viewBox="0 0 7.60716 13.7659">
    <path d="M7.60716 13.7659C6.33469 12.6229 5.18288 11.6483 4.10981 10.8209C3.03684 9.99347 2.04253 9.31322 1.08506 8.75859C-0.361687 7.92056 -0.361687 5.84531 1.08506 5.00728C2.04253 4.45266 3.03684 3.77241 4.10981 2.94497C5.18278 2.11753 6.33459 1.14309 7.60716 0V13.7659Z" fill="#3F4E6A"/>
  </svg>

  <!-- Cheeks (pink) -->
  <svg x="23.98" y="24.27" width="20.73" height="4.45" viewBox="0 0 20.7252 4.44844">
    <path d="M2.793 4.44844C4.33553 4.44844 5.586 3.45262 5.586 2.22422C5.586 0.995817 4.33553 0 2.793 0C1.25047 0 0 0.995817 0 2.22422C0 3.45262 1.25047 4.44844 2.793 4.44844Z" fill="#FFA1AC"/>
    <path d="M17.9322 4.44844C19.4747 4.44844 20.7252 3.45262 20.7252 2.22422C20.7252 0.995817 19.4747 0 17.9322 0C16.3897 0 15.1392 0.995817 15.1392 2.22422C15.1392 3.45262 16.3897 4.44844 17.9322 4.44844Z" fill="#FFA1AC"/>
  </svg>

  <!-- Face (eyes and smile) -->
  <svg x="26.37" y="22.04" width="15.95" height="4.93" viewBox="0 0 15.9487 4.932">
    <path d="M3.36197 2.73572C2.97366 2.73572 2.65884 2.421 2.65884 2.03259C2.65884 1.68722 2.37787 1.40625 2.03259 1.40625C1.68722 1.40625 1.40625 1.68722 1.40625 2.03259C1.40625 2.421 1.09144 2.73572 0.703125 2.73572C0.314812 2.73572 0 2.421 0 2.03259C0 0.911813 0.911812 0 2.03259 0C3.15337 0 4.06509 0.911813 4.06509 2.03259C4.06509 2.421 3.75028 2.73572 3.36197 2.73572Z" fill="#425460"/>
    <path d="M15.2455 2.73572C14.8572 2.73572 14.5424 2.421 14.5424 2.03259C14.5424 1.68722 14.2614 1.40625 13.9161 1.40625C13.5707 1.40625 13.2898 1.68722 13.2898 2.03259C13.2898 2.421 12.975 2.73572 12.5867 2.73572C12.1984 2.73572 11.8836 2.421 11.8836 2.03259C11.8836 0.911813 12.7954 0 13.9161 0C15.0368 0 15.9487 0.911813 15.9487 2.03259C15.9487 2.421 15.6338 2.73572 15.2455 2.73572Z" fill="#425460"/>
    <path d="M7.97428 4.932C7.23056 4.932 6.52331 4.60987 6.03403 4.0484C5.77893 3.75562 5.8094 3.31153 6.10219 3.05634C6.39497 2.80115 6.83906 2.83181 7.09425 3.1245C7.31644 3.37959 7.63725 3.52575 7.97437 3.52575C8.3115 3.52575 8.63231 3.3795 8.8544 3.12459C9.1095 2.83172 9.55359 2.80125 9.84647 3.05634C10.1392 3.31144 10.1697 3.75553 9.91472 4.04831C9.42525 4.60997 8.71809 4.932 7.97428 4.932Z" fill="#425460"/>
  </svg>
</svg>
