<svg preserveAspectRatio="none" width="100%" height="100%" overflow="visible" style="display: block;" viewBox="0 0 28.0001 28" fill="none" xmlns="http://www.w3.org/2000/svg">
<g id="g24571">
<path id="path24565" d="M8.49988 0C7.67753 0 6.99988 0.67765 6.99988 1.5V11.5C6.99988 12.3224 7.67753 13 8.49988 13H18.4999C19.3222 13 19.9999 12.3224 19.9999 11.5V1.5C19.9999 0.67765 19.3222 0 18.4999 0H8.49988ZM13.4823 2C13.5832 1.99638 13.6827 2.02337 13.7679 2.07739C13.8532 2.13142 13.9201 2.20999 13.9598 2.30273L16.9598 9.30274C16.9862 9.36321 17.0003 9.42826 17.0013 9.4942C17.0024 9.56015 16.9904 9.62566 16.9661 9.68695C16.9417 9.74825 16.9054 9.80414 16.8594 9.85138C16.8134 9.89862 16.7585 9.93628 16.6979 9.96222C16.6372 9.98816 16.5721 10.0019 16.5061 10.0026C16.4402 10.0032 16.3747 9.99085 16.3136 9.96613C16.2525 9.94141 16.1967 9.90483 16.1498 9.85852C16.1028 9.81221 16.0655 9.75708 16.0399 9.69629L15.3134 8H11.6864L10.9598 9.69629C10.9343 9.75708 10.8969 9.81221 10.85 9.85852C10.803 9.90483 10.7473 9.94141 10.6862 9.96613C10.625 9.99085 10.5596 10.0032 10.4937 10.0026C10.4277 10.0019 10.3625 9.98816 10.3019 9.96222C10.2412 9.93628 10.1864 9.89862 10.1404 9.85138C10.0944 9.80414 10.0582 9.74825 10.0338 9.68695C10.0095 9.62566 9.99748 9.56015 9.99854 9.4942C9.9996 9.42826 10.0136 9.36321 10.0399 9.30274L13.0399 2.30273C13.0773 2.2155 13.1388 2.1407 13.2172 2.0871C13.2955 2.0335 13.3874 2.00327 13.4823 2ZM13.4998 3.76953L12.115 7H14.8845L13.4998 3.76953Z" fill="var(--fill-0, #FD6363)"/>
<path id="path24567" d="M1.5 15C0.67765 15 0 15.6776 0 16.5V26.5C0 27.3224 0.67765 28 1.5 28H11.5C12.3224 28 13 27.3224 13 26.5V16.5C13 15.6776 12.3224 15 11.5 15H1.5ZM4.50391 17H6.50391C7.87871 17 9.00391 18.1252 9.00391 19.5C9.00391 20.3373 8.5598 21.0456 7.92285 21.5C8.5598 21.9543 9.00391 22.6627 9.00391 23.5C9.00391 24.8748 7.87871 26 6.50391 26H4.50391C4.3713 26 4.24416 25.9473 4.15039 25.8536C4.05663 25.7598 4.00392 25.6326 4.00391 25.5V21.582C3.99444 21.5264 3.99444 21.4696 4.00391 21.4141V17.5C4.00392 17.3674 4.05663 17.2402 4.15039 17.1465C4.24416 17.0527 4.3713 17 4.50391 17ZM5.00391 18V21H6.50391C7.33826 21 8.00391 20.3343 8.00391 19.5C8.00391 18.6656 7.33826 18 6.50391 18H5.00391ZM5.00391 22V25H6.50391C7.33826 25 8.00391 24.3343 8.00391 23.5C8.00391 22.6656 7.33826 22 6.50391 22H5.00391Z" fill="var(--fill-0, #FD6363)"/>
<path id="path24569" d="M16.5 15C15.6776 15 15 15.6776 15 16.5V26.5C15 27.3224 15.6776 28 16.5 28H26.5C27.3223 28 28 27.3224 28 26.5V16.5C28 15.6776 27.3223 15 26.5 15H16.5ZM22.0117 17C23.0763 17 24.1306 17.3209 24.876 18.1699C24.9204 18.2191 24.9547 18.2766 24.9767 18.3392C24.9987 18.4017 25.008 18.4681 25.0041 18.5342C25.0003 18.6004 24.9833 18.6652 24.9542 18.7247C24.9251 18.7843 24.8844 18.8375 24.8346 18.8812C24.7847 18.9249 24.7267 18.9582 24.6638 18.9793C24.6009 19.0004 24.5345 19.0088 24.4684 19.0039C24.4022 18.9991 24.3378 18.9811 24.2787 18.9511C24.2195 18.9211 24.167 18.8796 24.124 18.8291C23.5984 18.2304 22.8865 18 22.0117 18C20.38 18 19 19.528 19 21.5C19 23.4719 20.38 25 22.0117 25C22.8865 25 23.5984 24.7686 24.124 24.1699C24.167 24.1194 24.2195 24.078 24.2787 24.048C24.3378 24.018 24.4022 24 24.4684 23.9952C24.5345 23.9903 24.6009 23.9987 24.6638 24.0197C24.7267 24.0408 24.7847 24.0742 24.8346 24.1179C24.8844 24.1616 24.9251 24.2147 24.9542 24.2743C24.9833 24.3339 25.0003 24.3987 25.0041 24.4648C25.008 24.531 24.9987 24.5973 24.9767 24.6599C24.9547 24.7224 24.9204 24.7799 24.876 24.8291C24.1306 25.6781 23.0763 26 22.0117 26C19.7644 26 18 23.9464 18 21.5C18 19.0536 19.7644 17 22.0117 17Z" fill="var(--fill-0, #FD6363)"/>
</g>
</svg>
