<svg preserveAspectRatio="none" width="100%" height="100%" overflow="visible" style="display: block;" viewBox="0 0 11.8942 21.9998" fill="none" xmlns="http://www.w3.org/2000/svg">
<g id="Group">
<path id="Vector" d="M11.4463 0.00457742L8.59342 0C5.38831 0 3.31703 2.12507 3.31703 5.41417V7.91047H0.448588C0.20072 7.91047 0 8.11142 0 8.35929V11.9761C0 12.224 0.200949 12.4247 0.448588 12.4247H3.31703V21.5512C3.31703 21.7991 3.51775 21.9998 3.76562 21.9998H7.50812C7.75598 21.9998 7.9567 21.7988 7.9567 21.5512V12.4247H11.3106C11.5584 12.4247 11.7592 12.224 11.7592 11.9761L11.7605 8.35929C11.7605 8.24027 11.7132 8.1263 11.6292 8.04207C11.5452 7.95785 11.4307 7.91047 11.3117 7.91047H7.9567V5.79433C7.9567 4.77723 8.19908 4.26089 9.52401 4.26089L11.4458 4.26021C11.6935 4.26021 11.8942 4.05926 11.8942 3.81162V0.453165C11.8942 0.205755 11.6937 0.00503516 11.4463 0.00457742Z" fill="var(--fill-0, #1F1C14)"/>
</g>
</svg>
