<svg preserveAspectRatio="none" width="100%" height="100%" overflow="visible" style="display: block;" viewBox="0 0 24.4598 28.3736" fill="none" xmlns="http://www.w3.org/2000/svg">
<g id="004   Genius">
<g id="Group">
<path id="Shape" d="M13.3066 4.96331C13.0834 4.96373 12.8881 4.81296 12.8321 4.59685C12.7761 4.38075 12.8735 4.15414 13.0688 4.04606C16.8083 1.97185 21.3764 0.425982 22.9805 2.31429C23.1561 2.52017 23.1316 2.82943 22.9257 3.00504C22.7199 3.18066 22.4106 3.15613 22.235 2.95025C21.4112 1.98213 18.1614 2.34169 13.5434 4.90411C13.4706 4.94335 13.3892 4.96371 13.3066 4.96331V4.96331Z" fill="var(--fill-0, #E57E25)"/>
<path id="Shape_2" d="M1.59007 17.9876C1.38947 17.9878 1.20913 17.8654 1.13511 17.679C0.465399 15.9937 1.98241 13.0947 5.19547 9.9227C5.39053 9.75305 5.68392 9.76446 5.86522 9.94874C6.04653 10.133 6.05315 10.4266 5.88035 10.6188C2.65701 13.8035 1.63116 16.2779 2.04404 17.3174C2.10403 17.468 2.0855 17.6386 1.99459 17.7728C1.90368 17.907 1.75218 17.9875 1.59007 17.9876V17.9876Z" fill="var(--fill-0, #E57E25)"/>
<path id="Shape_3" d="M11.2807 5.03446C11.1972 5.03448 11.115 5.0131 11.042 4.97233C6.28796 2.30718 3.17127 2.02099 2.28533 2.88052C2.09189 3.06964 1.78175 3.06614 1.59263 2.87269C1.4035 2.67924 1.40701 2.36911 1.60045 2.17998C3.33956 0.487354 7.86221 2.07138 11.516 4.11819C11.7106 4.22691 11.8071 4.45343 11.7507 4.66908C11.6943 4.88473 11.4992 5.03497 11.2763 5.03446H11.2807Z" fill="var(--fill-0, #E57E25)"/>
<path id="Shape_4" d="M22.889 17.9389C22.7298 17.9389 22.5805 17.8613 22.4889 17.7311C22.3973 17.6009 22.3749 17.4342 22.4287 17.2843C22.89 16.0012 21.3793 13.3849 18.5797 10.619C18.3926 10.4283 18.3932 10.1228 18.5808 9.93278C18.7685 9.74272 19.0739 9.7383 19.267 9.92286C22.4316 13.0493 23.9574 15.9248 23.3489 17.615C23.2792 17.8091 23.0952 17.9386 22.889 17.9389V17.9389Z" fill="var(--fill-0, #E57E25)"/>
</g>
<path id="Shape_5" d="M8.31638 24.4597H6.84878C6.5786 24.4597 6.35958 24.2407 6.35958 23.9705C6.35958 23.7003 6.5786 23.4813 6.84878 23.4813H8.31638C8.58655 23.4813 8.80558 23.7003 8.80558 23.9705C8.80558 24.2407 8.58655 24.4597 8.31638 24.4597Z" fill="var(--fill-0, #7F8284)"/>
<path id="Shape_6" d="M17.6114 24.4597H16.1438C15.8736 24.4597 15.6546 24.2407 15.6546 23.9705C15.6546 23.7003 15.8736 23.4813 16.1438 23.4813H17.6114C17.8816 23.4813 18.1006 23.7003 18.1006 23.9705C18.1006 24.2407 17.8816 24.4597 17.6114 24.4597Z" fill="var(--fill-0, #7F8284)"/>
<path id="Shape_7" d="M20.9967 11.6136C20.803 13.6197 19.9236 15.4978 18.5067 16.9312C17.0175 18.4058 16.1686 20.4075 16.1439 22.5032H8.3167C8.31326 21.4662 8.09853 20.4409 7.68563 19.4897C7.2717 18.537 6.6845 17.6695 5.95386 16.9312C3.70029 14.645 2.87123 11.3127 3.79086 8.2371C4.71048 5.1615 7.23271 2.83121 10.3713 2.15737C10.5973 2.11125 10.7604 1.91351 10.7627 1.68285V1.4676C10.7627 0.657066 11.4198 0 12.2303 0C13.0408 0 13.6979 0.657066 13.6979 1.4676V1.68285C13.7002 1.91351 13.8632 2.11125 14.0892 2.15737C18.4578 3.09989 21.4275 7.16536 20.9967 11.6136V11.6136Z" fill="var(--fill-0, #F0C419)"/>
<path id="Shape_8" d="M19.4319 11.6136C19.2995 13.5514 18.5866 15.4043 17.3861 16.9312C16.1246 18.5139 15.4399 20.4792 15.445 22.5032H9.01494C9.01395 21.4766 8.83861 20.4576 8.49639 19.4897C8.17038 18.5625 7.68935 17.6974 7.07379 16.9312C5.87329 15.4043 5.16039 13.5514 5.02796 11.6136C4.67427 7.02001 7.22251 3.06239 10.7027 2.15737C10.9036 2.08851 11.0347 1.89498 11.0241 1.68285V1.4676C10.958 0.731232 11.4948 0.0779707 12.23 0C12.5644 0.00748063 12.8776 0.165698 13.0821 0.430495C13.3155 0.725394 13.4404 1.09156 13.4358 1.4676V1.68285C13.4252 1.89498 13.5563 2.08851 13.7572 2.15737C17.2374 3.06239 19.7856 7.02001 19.4319 11.6136V11.6136Z" fill="var(--fill-0, #F3D55B)"/>
<path id="Shape_9" d="M16.1435 22.503V25.4382C16.1419 25.9779 15.7048 26.415 15.1651 26.4166H9.29475C8.75506 26.415 8.31796 25.9779 8.31635 25.4382V22.503H16.1435Z" fill="var(--fill-0, #95A5A5)"/>
<path id="Shape_10" d="M14.6762 26.6614C14.6762 27.6056 13.5804 28.3736 12.2302 28.3736C10.88 28.3736 9.78418 27.6056 9.78418 26.6614C9.78399 26.579 9.79385 26.4969 9.81353 26.4168H14.6468C14.6665 26.4969 14.6764 26.579 14.6762 26.6614V26.6614Z" fill="var(--fill-0, #393F4A)"/>
<path id="Shape_11" d="M3.79 19.0789C3.07291 19.1185 2.36298 18.9189 1.77156 18.5115C1.62434 18.4074 1.54629 18.2308 1.56846 18.0519C1.59063 17.8729 1.70942 17.7207 1.87759 17.6557C2.04576 17.5907 2.23605 17.6235 2.37279 17.741C3.0743 18.2874 4.65001 18.2131 6.69585 17.538C8.5452 16.9027 10.3166 16.06 11.9763 15.0259C12.62 14.6346 13.2482 14.2241 13.8499 13.8093C16.2567 12.1813 18.4329 10.2359 20.3196 8.02598C21.9153 6.08141 22.7103 4.34573 22.4466 3.3825C22.3773 3.12266 22.5308 2.85562 22.7901 2.78463C23.0495 2.71363 23.3176 2.8653 23.3903 3.1242C23.8486 4.79873 22.385 7.05149 21.0763 8.64628C19.1318 10.9267 16.8883 12.9343 14.4066 14.6145C13.7917 15.0401 13.1454 15.4599 12.485 15.8625C10.7609 16.9355 8.92067 17.8098 6.99964 18.4684C5.96698 18.8338 4.88468 19.0397 3.79 19.0789V19.0789Z" fill="var(--fill-0, #F29C1F)"/>
<path id="Shape_12" d="M20.6684 19.0825C19.5728 19.0452 18.4896 18.8376 17.4578 18.4671C15.538 17.8084 13.699 16.9345 11.9759 15.8621C11.3145 15.459 10.6682 15.0392 10.0533 14.6131C7.57149 12.9329 5.32783 10.9254 3.38307 8.64492C2.05881 7.03056 0.584853 4.75529 1.08384 3.07832C1.16231 2.82124 1.4335 2.67563 1.69115 2.75223C1.94879 2.82884 2.09637 3.09897 2.02163 3.35716C1.73741 4.3155 2.52942 6.06048 4.14133 8.02461C6.02766 10.2347 8.20351 12.1801 10.61 13.8084C11.2098 14.2237 11.8399 14.6337 12.4846 15.026C14.1432 16.0595 15.9134 16.9017 17.7616 17.5366C19.9038 18.2435 21.5573 18.2865 22.1869 17.6521C22.3774 17.4604 22.6872 17.4594 22.8789 17.6499C23.0706 17.8403 23.0716 18.1501 22.8811 18.3418C22.2732 18.8764 21.4756 19.1433 20.6684 19.0825V19.0825Z" fill="var(--fill-0, #F29C1F)"/>
<path id="Oval" d="M1.7122 19.5679C2.65782 19.5679 3.42439 18.8013 3.42439 17.8557C3.42439 16.9101 2.65782 16.1435 1.7122 16.1435C0.766577 16.1435 0 16.9101 0 17.8557C0 18.8013 0.766577 19.5679 1.7122 19.5679Z" fill="var(--fill-0, #3B97D3)"/>
<path id="Oval_2" d="M1.7122 4.40269C2.65782 4.40269 3.42439 3.63612 3.42439 2.6905C3.42439 1.74488 2.65782 0.9783 1.7122 0.9783C0.766577 0.9783 0 1.74488 0 2.6905C0 3.63612 0.766577 4.40269 1.7122 4.40269Z" fill="var(--fill-0, #3B97D3)"/>
<path id="Oval_3" d="M22.7475 19.5679C23.6931 19.5679 24.4597 18.8013 24.4597 17.8557C24.4597 16.9101 23.6931 16.1435 22.7475 16.1435C21.8019 16.1435 21.0353 16.9101 21.0353 17.8557C21.0353 18.8013 21.8019 19.5679 22.7475 19.5679Z" fill="var(--fill-0, #3B97D3)"/>
<path id="Oval_4" d="M22.7475 4.40269C23.6931 4.40269 24.4597 3.63612 24.4597 2.6905C24.4597 1.74488 23.6931 0.9783 22.7475 0.9783C21.8019 0.9783 21.0353 1.74488 21.0353 2.6905C21.0353 3.63612 21.8019 4.40269 22.7475 4.40269Z" fill="var(--fill-0, #3B97D3)"/>
<path id="Shape_13" d="M6.10801 8.19074C5.93839 8.19073 5.78088 8.10286 5.69177 7.95854C5.60266 7.81421 5.59467 7.63402 5.67066 7.48238C6.58927 5.64267 8.23791 4.27303 10.2148 3.70723C10.3849 3.65312 10.5709 3.69588 10.7002 3.81882C10.8296 3.94177 10.8817 4.12538 10.8363 4.29794C10.7908 4.4705 10.655 4.60464 10.4819 4.64796C8.76929 5.13887 7.34129 6.32602 6.54584 7.92021C6.46296 8.08607 6.29343 8.19082 6.10801 8.19074Z" fill="var(--fill-0, white)"/>
</g>
</svg>
