<svg preserveAspectRatio="none" width="100%" height="100%" overflow="visible" style="display: block;" viewBox="0 0 43.9584 44.6103" fill="none" xmlns="http://www.w3.org/2000/svg">
<g id="026   Idea">
<path id="Shape" d="M6.2888 23.3283H4.15061C3.78269 23.3289 3.46676 23.5901 3.39685 23.9513L0.0280357 41.2415C-0.0593752 41.6931 0.0599533 42.1602 0.353294 42.5146C0.646634 42.869 1.08319 43.0735 1.54323 43.072H18.1335C18.1335 43.9181 19.8564 44.6103 21.9792 44.6103C24.102 44.6103 25.8249 43.9181 25.8249 43.072H42.4151C42.8752 43.0735 43.3117 42.869 43.6051 42.5146C43.8984 42.1602 44.0177 41.6931 43.9303 41.2415L40.5615 23.9513C40.4916 23.5901 40.1757 23.3289 39.8078 23.3283H6.2888Z" fill="var(--fill-0, #E64C3C)"/>
<path id="Shape_2" d="M21.9786 25.5662V39.9952C20.8534 39.5064 19.6806 39.1353 18.4791 38.8876C13.9117 37.8947 9.16225 38.1362 4.71921 39.5875C4.46383 39.6655 4.18633 39.6065 3.98472 39.4314C3.7831 39.2564 3.68574 38.9899 3.72703 38.7261L6.28825 23.328L6.50361 22.0282C6.55873 21.6983 6.81918 21.441 7.14969 21.3898C7.6727 21.3129 8.21109 21.236 8.74949 21.1744C9.68935 23.0014 11.5712 24.1502 13.6258 24.151C13.7643 24.151 13.895 24.1433 14.0258 24.1356C14.5379 24.0957 15.0424 23.987 15.5256 23.8126C15.5272 23.8289 15.5324 23.8447 15.541 23.8587C16.1165 25.4706 17.6443 26.5457 19.3559 26.543C20.3196 26.5462 21.2517 26.1991 21.9786 25.5662V25.5662Z" fill="var(--fill-0, #F5EFCA)"/>
<path id="Shape_3" d="M39.2385 39.5874C34.7954 38.1361 30.046 37.8945 25.4786 38.8875C24.2771 39.1352 23.1043 39.5063 21.9791 39.9951V25.5661C22.1408 25.4338 22.2901 25.2871 22.4252 25.1277C23.1936 25.4333 24.0132 25.5899 24.8403 25.5891H24.8864C24.9264 26.1391 25.136 26.6631 25.4863 27.089C26.2329 27.827 27.1661 28.348 28.186 28.5965C28.9261 28.8327 29.5863 29.2693 30.0935 29.8578C30.5456 30.4179 31.3116 30.6149 31.9778 30.3424C32.5643 30.0891 32.9449 29.5122 32.9469 28.8734C32.9478 28.7062 32.9218 28.54 32.87 28.3811C32.7931 28.1427 32.7085 27.9042 32.6085 27.6735C32.4157 27.1969 32.1623 26.7472 31.8548 26.3352C33.3802 25.5102 34.4514 24.0404 34.7698 22.3357C34.7929 22.3049 34.8236 22.2742 34.8467 22.2434C35.1099 21.9338 35.3251 21.5863 35.4851 21.2127C35.9312 21.2666 36.3696 21.3204 36.808 21.3897C37.1385 21.4408 37.399 21.6982 37.4541 22.028L37.6694 23.3279L40.2307 38.726C40.272 38.9898 40.1746 39.2563 39.973 39.4313C39.7714 39.6063 39.4939 39.6653 39.2385 39.5874V39.5874Z" fill="var(--fill-0, #F9EAB0)"/>
<path id="Shape_4" d="M25.825 43.0713C25.825 43.9174 24.1021 44.6096 21.9793 44.6096C19.8565 44.6096 18.1336 43.9174 18.1336 43.0713L18.4797 38.8872C19.6813 39.1349 20.854 39.506 21.9793 39.9948C23.1045 39.506 24.2773 39.1349 25.4789 38.8872L25.825 43.0713Z" fill="var(--fill-0, #C03A2B)"/>
<path id="Shape_5" d="M35.8239 19.6051C35.8232 20.1585 35.708 20.7058 35.4855 21.2126C35.3255 21.5862 35.1103 21.9336 34.8471 22.2432C34.824 22.274 34.7933 22.3048 34.7702 22.3355C34.4518 24.0403 33.3806 25.51 31.8552 26.335C32.1627 26.747 32.4161 27.1968 32.6089 27.6733C32.7089 27.9041 32.7935 28.1425 32.8704 28.3809C32.9222 28.5399 32.9482 28.706 32.9474 28.8732C32.9453 29.512 32.5647 30.0889 31.9782 30.3422C31.312 30.6148 30.546 30.4178 30.0939 29.8577C29.5867 29.2692 28.9265 28.8326 28.1864 28.5963C27.1665 28.3479 26.2333 27.8268 25.4867 27.0888C25.1364 26.663 24.9268 26.1389 24.8868 25.589H24.8407C24.0136 25.5898 23.194 25.4331 22.4256 25.1275C22.2905 25.2869 22.1412 25.4337 21.9795 25.5659C21.2526 26.1987 20.3205 26.5459 19.3567 26.5427C17.6452 26.5453 16.1173 25.4703 15.5418 23.8584C15.5333 23.8444 15.528 23.8286 15.5264 23.8123C15.0432 23.9867 14.5388 24.0953 14.0266 24.1353C13.8959 24.143 13.7651 24.1507 13.6267 24.1507C11.5479 24.1492 9.64785 22.975 8.7169 21.1163C7.78594 19.2576 7.98342 17.0328 9.22719 15.3671C9.13468 15.116 9.0878 14.8503 9.08875 14.5826C9.08412 13.446 9.8825 12.4641 10.9962 12.2368C11.0004 12.2326 11.0058 12.2299 11.0116 12.2291C11.0039 12.1368 10.9962 12.0445 10.9962 11.9445C10.9952 11.5179 11.0843 11.0959 11.2577 10.7062C11.7485 9.5712 12.867 8.8366 14.1035 8.83718C14.5699 8.83496 15.0304 8.94024 15.4495 9.14484C16.2683 7.76624 17.7533 6.92145 19.3567 6.92203C20.4569 6.91804 21.5197 7.3207 22.341 8.05266C22.8124 7.29214 23.6701 6.85962 24.5619 6.93259C25.4537 7.00556 26.2296 7.57172 26.5712 8.39877C26.7909 8.37424 27.0117 8.3614 27.2327 8.36032C30.2128 8.36525 32.6927 10.6514 32.9397 13.6212H32.9627C33.5964 13.6212 34.2041 13.8735 34.6514 14.3223C35.0988 14.7711 35.3491 15.3795 35.3471 16.0132C35.3456 16.4276 35.2398 16.835 35.0394 17.1977C35.5498 17.8965 35.8246 18.7397 35.8239 19.6051V19.6051Z" fill="var(--fill-0, #FB7B76)"/>
<path id="Shape_6" d="M21.9795 2.30742C21.5547 2.30742 21.2104 1.96307 21.2104 1.53828V0.769148C21.2104 0.344366 21.5547 1.17004e-05 21.9795 1.17004e-05C22.4043 1.17004e-05 22.7486 0.344366 22.7486 0.769148V1.53828C22.7486 1.96307 22.4043 2.30742 21.9795 2.30742Z" fill="var(--fill-0, #F0C419)"/>
<path id="Shape_7" d="M34.3752 7.60165C34.0641 7.60159 33.7837 7.41419 33.6647 7.12683C33.5457 6.83947 33.6115 6.5087 33.8314 6.28874L34.6005 5.5196C34.7936 5.31966 35.0796 5.23947 35.3485 5.30986C35.6174 5.38025 35.8274 5.59026 35.8978 5.85917C35.9682 6.12808 35.888 6.41405 35.6881 6.60716L34.9189 7.3763C34.7747 7.52055 34.5791 7.60161 34.3752 7.60165V7.60165Z" fill="var(--fill-0, #F0C419)"/>
<path id="Shape_8" d="M9.58311 7.60165C9.37914 7.60161 9.18354 7.52055 9.03933 7.3763L8.2702 6.60716C8.07025 6.41405 7.99007 6.12808 8.06046 5.85917C8.13084 5.59026 8.34085 5.38025 8.60976 5.30986C8.87868 5.23947 9.16465 5.31966 9.35776 5.5196L10.1269 6.28874C10.3468 6.5087 10.4126 6.83947 10.2935 7.12683C10.1745 7.41419 9.89415 7.60159 9.58311 7.60165Z" fill="var(--fill-0, #F0C419)"/>
<path id="Shape_9" d="M15.5041 4.3646C15.1931 4.36468 14.9126 4.17738 14.7935 3.89004L13.9105 1.75799C13.7982 1.50289 13.8328 1.20701 14.0007 0.984616C14.1687 0.762218 14.4439 0.648102 14.72 0.686333C14.996 0.724563 15.2298 0.909158 15.3311 1.16884L16.2148 3.30088C16.2932 3.48945 16.2934 3.70146 16.2154 3.89018C16.1373 4.0789 15.9874 4.22883 15.7987 4.30691C15.7052 4.34503 15.6051 4.36462 15.5041 4.3646V4.3646Z" fill="var(--fill-0, #F0C419)"/>
<path id="Shape_10" d="M28.4545 4.3646C28.3535 4.36438 28.2534 4.34453 28.16 4.30614C27.9714 4.22805 27.8217 4.07825 27.7436 3.88972C27.6656 3.70118 27.6657 3.48936 27.7438 3.30088L28.6276 1.16884C28.7288 0.909158 28.9626 0.724563 29.2387 0.686333C29.5148 0.648102 29.7899 0.762218 29.9579 0.984616C30.1259 1.20701 30.1604 1.50289 30.0482 1.75799L29.1652 3.89004C29.0461 4.17738 28.7656 4.36468 28.4545 4.3646V4.3646Z" fill="var(--fill-0, #F0C419)"/>
<path id="Shape_11" d="M37.6115 13.5229C37.2437 13.524 36.9266 13.2645 36.8548 12.9038C36.7831 12.5431 36.9767 12.182 37.3169 12.0423L39.449 11.1593C39.7029 11.0542 39.9936 11.0925 40.2116 11.2599C40.4295 11.4272 40.5417 11.6981 40.5058 11.9706C40.4698 12.243 40.2913 12.4756 40.0374 12.5807L37.9061 13.4636C37.8128 13.5026 37.7127 13.5227 37.6115 13.5229Z" fill="var(--fill-0, #F0C419)"/>
<path id="Shape_12" d="M6.34608 13.5229C6.24495 13.5227 6.14484 13.5026 6.0515 13.4636L3.92022 12.5807C3.66632 12.4756 3.48778 12.243 3.45185 11.9706C3.41592 11.6981 3.52807 11.4272 3.74605 11.2599C3.96402 11.0925 4.25471 11.0542 4.50861 11.1593L6.64066 12.0423C6.98087 12.182 7.17454 12.5431 7.10277 12.9038C7.031 13.2645 6.71388 13.524 6.34608 13.5229V13.5229Z" fill="var(--fill-0, #F0C419)"/>
<g id="Group">
<path id="Shape_13" d="M34.8468 22.2435C34.8238 22.2743 34.793 22.305 34.7699 22.3358C34.6344 23.0765 34.352 23.7826 33.9393 24.4125C33.5365 24.5268 33.1196 24.5837 32.7009 24.5817C31.9387 24.5795 31.1877 24.3977 30.5089 24.051C30.1876 23.879 29.8858 23.6727 29.609 23.4357C29.3022 23.5545 28.9766 23.617 28.6476 23.6203C27.6316 23.6255 26.701 23.0528 26.2479 22.1435C26.1242 21.8976 26.1412 21.6044 26.2923 21.3743C26.4435 21.1442 26.7059 21.0123 26.9807 21.0282C27.2555 21.0441 27.501 21.2054 27.6246 21.4513C27.7765 21.7429 28.0457 21.9559 28.3644 22.0366C28.6831 22.1174 29.0212 22.0584 29.2937 21.8743C29.6013 21.6643 29.7855 21.3161 29.7859 20.9437C29.7871 20.7654 29.7476 20.5891 29.6705 20.4283C29.5157 20.0564 29.674 19.628 30.0335 19.4463C30.393 19.2645 30.8319 19.3909 31.0396 19.7361C31.2266 20.1112 31.3241 20.5245 31.3242 20.9437C31.318 21.4811 31.149 22.004 30.8396 22.4435C30.9627 22.5281 31.0858 22.6127 31.2088 22.6819C31.6703 22.9195 32.1819 23.0434 32.7009 23.0434C33.4899 23.0478 34.2532 22.7632 34.8468 22.2435V22.2435Z" fill="var(--fill-0, #FF5364)"/>
<path id="Shape_14" d="M25.4406 19.224C26.437 18.5375 27.1222 17.4855 27.3473 16.2966C27.4046 16.0245 27.3104 15.7426 27.1011 15.5594C26.8918 15.3763 26.5999 15.3204 26.3378 15.4133C26.0756 15.5062 25.884 15.7334 25.8367 16.0074C25.6859 16.8007 25.2282 17.5025 24.563 17.9603C23.2834 18.8221 21.5672 18.6265 20.5143 17.4988C20.2278 17.1844 19.7407 17.1619 19.4264 17.4484C19.112 17.7349 19.0895 18.222 19.376 18.5364C20.0284 19.2567 20.8907 19.7539 21.8411 19.9577C21.4102 20.5634 20.7123 20.9223 19.969 20.9207C19.5442 20.9207 19.1999 21.265 19.1999 21.6898C19.1999 22.1146 19.5442 22.459 19.969 22.459C21.5612 22.4653 22.9899 21.4819 23.5524 19.9923C24.231 19.8795 24.876 19.6171 25.4406 19.224V19.224Z" fill="var(--fill-0, #FF5364)"/>
<path id="Shape_15" d="M32.6087 27.6741C32.0434 27.9626 31.4359 28.1599 30.8089 28.2586C30.7682 28.265 30.727 28.2676 30.6859 28.2663C30.2808 28.2701 29.9423 27.959 29.9118 27.555C29.8814 27.1511 30.1694 26.7928 30.5705 26.7357C31.0164 26.6682 31.4495 26.5334 31.855 26.3358C32.1625 26.7477 32.4159 27.1975 32.6087 27.6741V27.6741Z" fill="var(--fill-0, #FF5364)"/>
<path id="Shape_16" d="M15.4725 22.3051C15.4337 22.5209 15.4131 22.7396 15.411 22.9589C15.4094 23.2475 15.4483 23.5348 15.5264 23.8126C15.0432 23.987 14.5387 24.0957 14.0265 24.1357C13.9281 23.7589 13.8764 23.3714 13.8727 22.982C12.5179 22.8342 11.4909 21.6913 11.4884 20.3284C11.4858 19.9001 11.8292 19.5498 12.2575 19.5439C12.4606 19.5427 12.6557 19.6223 12.8 19.7651C12.9443 19.908 13.0259 20.1023 13.0267 20.3054V20.3284C13.0382 20.9362 13.5193 21.4308 14.1265 21.4591C14.2329 21.1122 14.38 20.7791 14.5649 20.4669C14.6682 20.2905 14.8383 20.1633 15.0367 20.1141C15.2351 20.0648 15.4449 20.0978 15.6187 20.2054C15.9803 20.4289 16.0966 20.9008 15.8802 21.2668C15.6849 21.5865 15.5469 21.9379 15.4725 22.3051V22.3051Z" fill="var(--fill-0, #FF5364)"/>
<path id="Shape_17" d="M26.9092 26.8046C26.4471 26.9525 25.9698 27.0479 25.4863 27.0892C25.1359 26.6634 24.9263 26.1394 24.8864 25.5894C24.9608 25.5908 25.0353 25.5882 25.1094 25.5817C25.5662 25.5527 26.018 25.4701 26.4554 25.3356C26.7207 25.2446 27.0145 25.3052 27.2221 25.4937C27.4297 25.6823 27.5182 25.9689 27.4531 26.2416C27.388 26.5144 27.1796 26.7301 26.9092 26.8046V26.8046Z" fill="var(--fill-0, #FF5364)"/>
<path id="Shape_18" d="M20.2878 13.0755C20.2878 12.6507 19.9434 12.3063 19.5186 12.3063C17.5655 12.3085 15.9827 13.8912 15.9806 15.8444C15.9806 16.2691 16.3249 16.6135 16.7497 16.6135C17.1745 16.6135 17.5189 16.2691 17.5189 15.8444C17.5189 15.314 17.7296 14.8053 18.1046 14.4303C18.4796 14.0553 18.9883 13.8446 19.5186 13.8446C19.9434 13.8446 20.2878 13.5003 20.2878 13.0755V13.0755Z" fill="var(--fill-0, #FF5364)"/>
<path id="Shape_19" d="M10.2484 17.4002C10.1087 17.4004 9.97168 17.362 9.85232 17.2895C9.21809 16.9068 8.73823 16.3137 8.49634 15.6135C8.37933 15.2806 8.31977 14.9303 8.32021 14.5775C8.3202 12.8344 9.73056 11.4199 11.4737 11.4148C12.4725 11.411 13.4128 11.8853 14.0033 12.6908C14.1673 12.9114 14.201 13.2028 14.0919 13.4551C13.9827 13.7073 13.7473 13.8822 13.4742 13.9138C13.2012 13.9455 12.932 13.829 12.7681 13.6084C12.4667 13.197 11.9867 12.9546 11.4767 12.9561C10.7487 12.9602 10.1123 13.448 9.919 14.1498C9.72572 14.8517 10.0228 15.5965 10.6461 15.9727C10.9424 16.1509 11.0834 16.505 10.9907 16.8381C10.8979 17.1713 10.5942 17.4016 10.2484 17.401V17.4002Z" fill="var(--fill-0, #FF5364)"/>
<path id="Shape_20" d="M26.7535 10.0845C26.3287 10.0845 25.9843 9.74011 25.9843 9.31532C25.9843 8.4218 25.26 7.69745 24.3665 7.69745C23.4729 7.69745 22.7486 8.4218 22.7486 9.31532C22.7486 9.74011 22.4042 10.0845 21.9794 10.0845C21.5547 10.0845 21.2103 9.74011 21.2103 9.31532C21.2103 7.57223 22.6234 6.15917 24.3665 6.15917C26.1096 6.15917 27.5226 7.57223 27.5226 9.31532C27.5226 9.51931 27.4416 9.71494 27.2973 9.85919C27.1531 10.0034 26.9575 10.0845 26.7535 10.0845V10.0845Z" fill="var(--fill-0, #FF5364)"/>
<path id="Shape_21" d="M33.9684 18.9526C33.6113 18.9491 33.3036 18.7003 33.2254 18.3518C33.1473 18.0033 33.3193 17.6469 33.6407 17.4913C33.9473 17.3473 34.2017 17.1119 34.3691 16.8175C34.7604 16.1507 34.6243 15.3001 34.0444 14.7887C33.4646 14.2773 32.6036 14.2485 31.9909 14.7201C31.6511 14.975 31.169 14.9061 30.9142 14.5663C30.6593 14.2264 30.7282 13.7443 31.068 13.4895C31.6062 13.082 32.2619 12.8596 32.937 12.8557C34.423 12.8456 35.7154 13.8716 36.0427 15.3212C36.37 16.7707 35.6437 18.2525 34.2976 18.8819C34.1945 18.9298 34.082 18.954 33.9684 18.9526V18.9526Z" fill="var(--fill-0, #FF5364)"/>
</g>
</g>
</svg>
