<svg preserveAspectRatio="none" width="100%" height="100%" overflow="visible" style="display: block;" viewBox="0 0 44.9806 49.4441" fill="none" xmlns="http://www.w3.org/2000/svg">
<g id="Group">
<path id="Vector" d="M22.5109 1.34546e-05C13.9266 -0.0111887 6.93182 6.97423 6.93192 15.5586C6.93202 21.2652 10.0049 26.2534 14.5859 28.9608C15.3993 29.4415 15.8917 30.3226 15.8917 31.2676V35.0572C16.0423 34.9942 16.2075 34.9593 16.3809 34.9593H28.5997C28.7732 34.9593 28.9383 34.9942 29.0888 35.0572V31.2675C29.0888 30.3114 29.5996 29.4329 30.4217 28.9449C34.9877 26.2337 38.0485 21.254 38.0485 15.5585C38.0486 6.97259 31.0941 0.0112156 22.5109 1.34546e-05Z" fill="var(--fill-0, #FFE181)"/>
<g id="Group_2">
<path id="Vector_2" d="M20.0037 31.2676C20.0037 30.3227 19.5114 29.4415 18.6979 28.9608C14.1169 26.2534 11.044 21.2652 11.0439 15.5586C11.0438 7.67688 16.9407 1.14399 24.5502 0.135791C23.8828 0.0475261 23.2023 0.000979159 22.511 1.34546e-05C13.9267 -0.0111887 6.93182 6.97413 6.93192 15.5586C6.93202 21.2652 10.0049 26.2534 14.5859 28.9608C15.3994 29.4415 15.8917 30.3227 15.8917 31.2676V35.0572C16.0423 34.9942 16.2075 34.9593 16.3809 34.9593H20.0037V31.2676Z" fill="var(--fill-0, #FEC458)"/>
</g>
<g id="Group_3">
<path id="Vector_3" d="M24.439 35.7054C24.0269 35.7054 23.6929 35.3713 23.6929 34.9593V28.2818C23.6929 27.6107 23.9188 26.9488 24.329 26.4176L25.3967 25.0353C25.6061 24.764 25.7215 24.426 25.7215 24.0833V17.1148C25.7215 16.7027 26.0556 16.3687 26.4676 16.3687C26.8797 16.3687 27.2137 16.7027 27.2137 17.1148V24.0833C27.2137 24.7544 26.9878 25.4164 26.5776 25.9475L25.5099 27.3298C25.3004 27.6011 25.1851 27.9391 25.1851 28.2818V34.9593C25.1851 35.3713 24.851 35.7054 24.439 35.7054Z" fill="var(--fill-0, #FFB640)"/>
</g>
<g id="Group_4">
<path id="Vector_4" d="M20.5416 35.7054C20.1295 35.7054 19.7955 35.3713 19.7955 34.9593V28.2818C19.7955 27.9392 19.6801 27.6011 19.4706 27.3298L18.4028 25.9475C17.9927 25.4165 17.7667 24.7544 17.7667 24.0833V17.1148C17.7667 16.7027 18.1008 16.3687 18.5128 16.3687C18.9249 16.3687 19.2589 16.7027 19.2589 17.1148V24.0833C19.2589 24.426 19.3743 24.764 19.5838 25.0352L20.6516 26.4175C21.0618 26.9487 21.2877 27.6107 21.2877 28.2817V34.9592C21.2877 35.3713 20.9537 35.7054 20.5416 35.7054Z" fill="var(--fill-0, #FFB640)"/>
</g>
<g id="Group_5">
<path id="Vector_5" d="M33.3437 12.5121C32.5363 9.50322 30.462 6.98737 27.6525 5.60979C27.2826 5.42833 27.1297 4.98131 27.3111 4.61144C27.4924 4.24148 27.9397 4.08871 28.3094 4.26997C31.5056 5.83721 33.8659 8.70043 34.7849 12.1253C34.8918 12.5233 34.6556 12.9325 34.2577 13.0393C33.86 13.1461 33.4505 12.9103 33.3437 12.5121Z" fill="var(--fill-0, #FFEAC8)"/>
</g>
<path id="Vector_6" d="M19.4772 45.8844V46.431C19.4772 48.0881 20.833 49.4441 22.4902 49.4441C24.1473 49.4441 25.5032 48.0882 25.5032 46.431V45.8844H19.4772Z" fill="var(--fill-0, #8479C2)"/>
<path id="Vector_7" d="M22.1744 46.431V45.8844H19.4772V46.431C19.4772 48.0881 20.833 49.4441 22.4902 49.4441C22.9743 49.4441 23.4323 49.3277 23.8388 49.1225C22.8542 48.6254 22.1744 47.604 22.1744 46.431Z" fill="var(--fill-0, #6E60B8)"/>
<g id="Group_6">
<path id="Vector_8" d="M27.2134 18.6884H17.767C17.355 18.6884 17.0209 18.3544 17.0209 17.9423C17.0209 17.5302 17.355 17.1962 17.767 17.1962H27.2134C27.6255 17.1962 27.9595 17.5302 27.9595 17.9423C27.9595 18.3544 27.6255 18.6884 27.2134 18.6884Z" fill="var(--fill-0, #FEC458)"/>
</g>
<g id="Group_7">
<path id="Vector_9" d="M3.31285 15.9062H0.746103C0.334037 15.9062 1.52819e-07 15.5722 1.52819e-07 15.1601C1.52819e-07 14.7481 0.334037 14.414 0.746103 14.414H3.31285C3.72491 14.414 4.05895 14.7481 4.05895 15.1601C4.05895 15.5721 3.72491 15.9062 3.31285 15.9062Z" fill="var(--fill-0, #FEC458)"/>
</g>
<g id="Group_8">
<path id="Vector_10" d="M4.04533 11.1714L1.64556 10.2606C1.26034 10.1144 1.06652 9.68351 1.21273 9.29829C1.35904 8.91308 1.78974 8.71945 2.17506 8.86547L4.57483 9.77622C4.96005 9.92243 5.15387 10.3533 5.00766 10.7385C4.86155 11.1235 4.43104 11.3175 4.04533 11.1714Z" fill="var(--fill-0, #FEC458)"/>
</g>
<g id="Group_9">
<path id="Vector_11" d="M1.21273 21.0218C1.06652 20.6366 1.26034 20.2057 1.64556 20.0595L4.04533 19.1488C4.43036 19.0026 4.86145 19.1963 5.00766 19.5816C5.15387 19.9668 4.96005 20.3977 4.57483 20.5439L2.17506 21.4547C1.78974 21.6009 1.35904 21.4072 1.21273 21.0218Z" fill="var(--fill-0, #FEC458)"/>
</g>
<g id="Group_10">
<path id="Vector_12" d="M44.2345 15.9062H41.6677C41.2556 15.9062 40.9216 15.5722 40.9216 15.1601C40.9216 14.7481 41.2556 14.414 41.6677 14.414H44.2345C44.6465 14.414 44.9806 14.7481 44.9806 15.1601C44.9806 15.5721 44.6465 15.9062 44.2345 15.9062Z" fill="var(--fill-0, #FEC458)"/>
</g>
<g id="Group_11">
<path id="Vector_13" d="M39.9728 10.7384C39.8266 10.3532 40.0204 9.92233 40.4056 9.77613L42.8054 8.86537C43.1904 8.71926 43.6215 8.91288 43.7677 9.2982C43.9139 9.68342 43.7201 10.1143 43.3349 10.2605L40.9352 11.1714C40.5498 11.3175 40.1191 11.1238 39.9728 10.7384Z" fill="var(--fill-0, #FEC458)"/>
</g>
<g id="Group_12">
<path id="Vector_14" d="M42.8055 21.4548L40.4057 20.544C40.0205 20.3978 39.8267 19.9669 39.9729 19.5817C40.1192 19.1965 40.5499 19.0027 40.9352 19.1489L43.335 20.0596C43.7202 20.2058 43.914 20.6367 43.7678 21.0219C43.6216 21.4069 43.1911 21.6009 42.8055 21.4548Z" fill="var(--fill-0, #FEC458)"/>
</g>
<path id="Vector_15" d="M27.6054 42.2178H17.3751C16.6612 42.2178 16.0804 42.7986 16.0804 43.5124V44.6145C16.0804 45.3283 16.6612 45.9091 17.3751 45.9091H27.6055C28.3194 45.9091 28.9001 45.3283 28.9001 44.6145V43.5124C28.9001 42.7986 28.3194 42.2178 27.6054 42.2178Z" fill="var(--fill-0, #EFECEF)"/>
<path id="Vector_16" d="M27.6054 44.0635H17.3751C16.7905 44.0635 16.2957 43.6738 16.1355 43.1407C16.1 43.2586 16.0804 43.3833 16.0804 43.5125V44.6146C16.0804 45.3284 16.6612 45.9092 17.3751 45.9092H27.6055C28.3194 45.9092 28.9001 45.3284 28.9001 44.6146V43.5125C28.9001 43.3832 28.8805 43.2585 28.8451 43.1407C28.6849 43.6738 28.1901 44.0635 27.6054 44.0635Z" fill="var(--fill-0, #E2DFE2)"/>
<path id="Vector_17" d="M28.5997 38.5761H16.3808C15.6669 38.5761 15.0861 39.1569 15.0861 39.8707V40.9728C15.0861 41.6868 15.6669 42.2675 16.3808 42.2675H28.5997C29.3137 42.2675 29.8944 41.6868 29.8944 40.9728V39.8707C29.8944 39.1569 29.3137 38.5761 28.5997 38.5761Z" fill="var(--fill-0, #EFECEF)"/>
<path id="Vector_18" d="M28.5997 40.4219H16.3808C15.7961 40.4219 15.3013 40.0321 15.1411 39.499C15.1056 39.6169 15.086 39.7415 15.086 39.8707V40.9728C15.086 41.6868 15.6668 42.2675 16.3807 42.2675H28.5996C29.3136 42.2675 29.8943 41.6868 29.8943 40.9728V39.8707C29.8943 39.7414 29.8747 39.6169 29.8393 39.499C29.6792 40.0321 29.1843 40.4219 28.5997 40.4219Z" fill="var(--fill-0, #E2DFE2)"/>
<path id="Vector_19" d="M28.5997 34.9344H16.3808C15.6669 34.9344 15.0861 35.5151 15.0861 36.2291V37.3311C15.0861 38.045 15.6669 38.6258 16.3808 38.6258H28.5997C29.3137 38.6258 29.8944 38.045 29.8944 37.3311V36.2291C29.8944 35.5151 29.3137 34.9344 28.5997 34.9344Z" fill="var(--fill-0, #EFECEF)"/>
<path id="Vector_20" d="M28.5997 36.7801H16.3808C15.7961 36.7801 15.3013 36.3903 15.1411 35.8573C15.1056 35.9752 15.086 36.0999 15.086 36.2291V37.3311C15.086 38.045 15.6668 38.6258 16.3807 38.6258H28.5996C29.3136 38.6258 29.8943 38.045 29.8943 37.3311V36.2291C29.8943 36.0998 29.8747 35.9751 29.8393 35.8573C29.6792 36.3903 29.1843 36.7801 28.5997 36.7801Z" fill="var(--fill-0, #E2DFE2)"/>
</g>
</svg>
