<svg preserveAspectRatio="none" width="100%" height="100%" overflow="visible" style="display: block;" viewBox="0 0 22 18.5714" fill="none" xmlns="http://www.w3.org/2000/svg">
<g id="LinkedIn Icon" clip-path="url(#clip0_523_2358)">
<path id="Path 2525" d="M20.9205 17.373C20.9677 17.3734 21.0145 17.3643 21.058 17.3461C21.1014 17.3279 21.1407 17.3011 21.1733 17.2672C21.2058 17.2334 21.231 17.1933 21.2473 17.1494C21.2636 17.1056 21.2706 17.0588 21.2679 17.0122C21.2679 16.7563 21.112 16.6341 20.7921 16.6341H20.2753V17.9736H20.4697V17.3897H20.7086L20.714 17.3968L21.0847 17.9736H21.2926L20.8938 17.3766L20.9205 17.373ZM20.6957 17.2388H20.4703V16.7859H20.7559C20.9035 16.7859 21.0718 16.8098 21.0718 17.0011C21.0718 17.2211 20.9015 17.2388 20.6945 17.2388" fill="var(--fill-0, #1F1C14)"/>
<path id="Path 2520" d="M15.8502 15.6939H13.0939V11.4199C13.0939 10.4008 13.0755 9.08876 11.6603 9.08876C10.2247 9.08876 10.0051 10.1992 10.0051 11.3457V15.6936H7.24877V6.90458H9.89484V8.10569H9.93188C10.1967 7.65738 10.5793 7.28858 11.0391 7.03857C11.4988 6.78856 12.0185 6.66669 12.5426 6.68596C15.3363 6.68596 15.8514 8.5054 15.8514 10.8724L15.8502 15.6939ZM4.13874 5.70317C3.82238 5.70323 3.51311 5.6104 3.25003 5.43642C2.98696 5.26244 2.78192 5.01512 2.6608 4.72575C2.53968 4.43637 2.50794 4.11793 2.5696 3.8107C2.63127 3.50347 2.78356 3.22124 3.00722 2.99971C3.23088 2.77817 3.51586 2.62728 3.82612 2.56612C4.13639 2.50495 4.458 2.53626 4.7503 2.65608C5.04259 2.7759 5.29244 2.97885 5.46825 3.23927C5.64405 3.49969 5.73792 3.80588 5.73798 4.11912C5.73802 4.3271 5.69667 4.53306 5.61632 4.72522C5.53598 4.91739 5.4182 5.092 5.2697 5.2391C5.12119 5.38619 4.94487 5.50288 4.75082 5.58251C4.55677 5.66213 4.34879 5.70314 4.13874 5.70317V5.70317ZM5.51689 15.6939H2.75771V6.90458H5.51689V15.6939ZM17.2243 0.00119832H1.37267C1.01288 -0.00282191 0.666179 0.134756 0.408784 0.383699C0.151388 0.632642 0.00435319 0.972584 -3.78309e-05 1.32883V17.0895C0.0042029 17.4459 0.151152 17.7861 0.408539 18.0353C0.665925 18.2845 1.0127 18.4223 1.37267 18.4185H17.2243C17.585 18.423 17.9328 18.2856 18.1912 18.0364C18.4496 17.7872 18.5975 17.4466 18.6025 17.0895V1.32769C18.5974 0.970741 18.4493 0.630412 18.1909 0.381475C17.9325 0.132537 17.5849 -0.00464701 17.2243 6.07011e-05" fill="var(--fill-0, #1F1C14)"/>
<path id="Path 2526" d="M20.7195 16.0373C20.3842 16.0405 20.0637 16.175 19.8283 16.4115C19.5929 16.648 19.4616 16.9672 19.4632 17.2992C19.4648 17.6313 19.5992 17.9492 19.8369 18.1834C20.0746 18.4177 20.3963 18.5492 20.7317 18.5492C21.0671 18.5492 21.3888 18.4177 21.6265 18.1834C21.8642 17.9492 21.9986 17.6313 22.0002 17.2992C22.0018 16.9672 21.8705 16.648 21.6351 16.4115C21.3997 16.175 21.0793 16.0405 20.7439 16.0373H20.7195ZM20.7195 18.4054C20.4995 18.409 20.2834 18.348 20.0985 18.23C19.9136 18.112 19.7682 17.9424 19.6806 17.7425C19.593 17.5427 19.5673 17.3217 19.6066 17.1074C19.6459 16.893 19.7486 16.6951 19.9015 16.5385C20.0545 16.382 20.2508 16.2738 20.4659 16.2278C20.6809 16.1817 20.9049 16.1998 21.1095 16.2798C21.3141 16.3598 21.4902 16.4981 21.6154 16.6772C21.7407 16.8562 21.8095 17.0681 21.8131 17.2859C21.8131 17.2921 21.8131 17.2981 21.8131 17.3043C21.8193 17.59 21.7106 17.8665 21.5109 18.0728C21.3113 18.2792 21.037 18.3986 20.7485 18.4048H20.7198" fill="var(--fill-0, #1F1C14)"/>
</g>
<defs>
<clipPath id="clip0_523_2358">
<rect width="22" height="18.5714" fill="white"/>
</clipPath>
</defs>
</svg>
