<svg preserveAspectRatio="none" width="100%" height="100%" overflow="visible" style="display: block;" viewBox="0 0 28.103 30.4359" fill="none" xmlns="http://www.w3.org/2000/svg">
<g id="Group">
<path id="Vector" d="M15.401 8.3554C14.6569 9.10869 13.4509 9.10869 12.7068 8.3554C11.963 7.60212 11.963 6.3807 12.7068 5.62741C13.4509 4.87413 14.6569 4.87413 15.401 5.62741C16.1449 6.3807 16.1449 7.60212 15.401 8.3554Z" fill="var(--fill-0, #9C4DF4)"/>
<path id="Vector_2" d="M18.0034 11.2782C17.7713 11.2782 17.5392 11.1883 17.3625 11.0084C17.0091 10.6494 17.0098 10.0677 17.3637 9.7094C18.0808 8.98329 18.4756 8.01799 18.4756 6.9914C18.4756 5.9648 18.0808 4.99951 17.3637 4.2734C17.0098 3.91487 17.0091 3.33342 17.3625 2.97419C17.7157 2.61519 18.289 2.6145 18.6429 2.97303C19.7028 4.0463 20.2865 5.47322 20.2865 6.9914C20.2865 8.50935 19.7028 9.9365 18.6429 11.0098C18.4662 11.1888 18.2348 11.2782 18.0034 11.2782Z" fill="var(--fill-0, #9C4DF4)"/>
<path id="Vector_3" d="M20.0514 13.9827C19.8193 13.9827 19.5873 13.8929 19.4106 13.7131C19.0572 13.3539 19.0578 12.7725 19.4117 12.4139C20.8422 10.9654 21.6303 9.03971 21.6303 6.9914C21.6303 4.94309 20.8422 3.01738 19.4117 1.56886C19.0578 1.21033 19.0572 0.62888 19.4106 0.269653C19.7639 -0.0893418 20.3371 -0.0900385 20.6909 0.268492C22.4643 2.06416 23.4412 4.45173 23.4409 6.9914C23.4409 9.53107 22.4643 11.9189 20.6909 13.7145C20.5142 13.8933 20.2828 13.9827 20.0514 13.9827Z" fill="var(--fill-0, #9C4DF4)"/>
<path id="Vector_4" d="M10.0999 11.2777C9.86847 11.2777 9.63707 11.1883 9.46015 11.0093C8.40019 9.93604 7.81654 8.50888 7.81654 6.99094C7.81654 5.47276 8.40019 4.04583 9.46015 2.97256C9.814 2.61403 10.3874 2.6145 10.7405 2.97373C11.0939 3.33272 11.0932 3.9144 10.7394 4.27293C10.0223 4.99905 9.62746 5.96434 9.62746 6.99094C9.62746 8.01753 10.0223 8.98282 10.7394 9.70894C11.0932 10.0672 11.0939 10.6489 10.7405 11.0079C10.5638 11.1876 10.3317 11.2777 10.0999 11.2777Z" fill="var(--fill-0, #9C4DF4)"/>
<path id="Vector_5" d="M8.05184 13.9837C7.82021 13.9837 7.58881 13.8943 7.41211 13.7152C5.63873 11.9196 4.66209 9.532 4.66209 6.99233C4.66209 4.45243 5.63873 2.06486 7.41211 0.269193C7.76597 -0.0891056 8.33932 -0.0886411 8.69248 0.270586C9.04588 0.62958 9.04519 1.21103 8.69134 1.56956C7.26082 3.01808 6.47278 4.94379 6.47278 6.9921C6.47278 9.04041 7.26082 10.9664 8.69134 12.4149C9.04519 12.7734 9.04588 13.3549 8.69248 13.7141C8.51578 13.8938 8.2837 13.9837 8.05184 13.9837Z" fill="var(--fill-0, #9C4DF4)"/>
<path id="Vector_6" d="M25.9851 15.5708H2.11807C0.948255 15.5708 2.64895e-08 16.5329 2.64895e-08 17.7194V28.287C2.64895e-08 29.4738 0.948255 30.4359 2.11807 30.4359H25.9849C27.1547 30.4359 28.103 29.4738 28.103 28.287V17.7194C28.103 16.5329 27.1547 15.5708 25.9851 15.5708V15.5708ZM6.96509 27.6788H3.62914C3.12927 27.6788 2.72392 27.2676 2.72392 26.7602V19.2464C2.72392 18.7393 3.12927 18.3278 3.62914 18.3278C4.12925 18.3278 4.5346 18.7391 4.5346 19.2464V25.8416H6.96509C7.46519 25.8416 7.87054 26.2529 7.87054 26.7602C7.87054 27.2676 7.46519 27.6788 6.96509 27.6788ZM10.6757 26.7602C10.6757 27.2676 10.2704 27.6788 9.77026 27.6788C9.27015 27.6788 8.8648 27.2676 8.8648 26.7602V19.2464C8.8648 18.7393 9.27015 18.3278 9.77026 18.3278C10.2704 18.3278 10.6757 18.7391 10.6757 19.2464V26.7602ZM18.2938 19.5121L16.0579 27.0256C16.0576 27.0263 16.0574 27.027 16.0572 27.0277C15.8143 27.8686 14.5763 27.8479 14.325 27.0277C14.3248 27.027 14.3245 27.0263 14.3243 27.0256L12.0884 19.5121C11.9439 19.0263 12.2147 18.5138 12.6935 18.3671C13.1719 18.2205 13.6775 18.4952 13.8219 18.981L15.1911 23.5818L16.5603 18.981C16.7049 18.4952 17.21 18.2203 17.6889 18.3671C18.1675 18.5138 18.4385 19.0263 18.2938 19.5121V19.5121ZM23.8641 21.6117C24.3642 21.6117 24.7695 22.023 24.7695 22.5303C24.7695 23.0375 24.3642 23.4489 23.8641 23.4489H21.2947V25.8416H24.3518C24.8519 25.8416 25.2573 26.2529 25.2573 26.7602C25.2573 27.2676 24.8519 27.6788 24.3518 27.6788H20.3892C19.8891 27.6788 19.4838 27.2676 19.4838 26.7602V19.2464C19.4838 18.7393 19.8891 18.3278 20.3892 18.3278H24.4738C24.9737 18.3278 25.3793 18.7391 25.3793 19.2464C25.3793 19.7538 24.9737 20.1651 24.4738 20.1651H21.2944V21.6117H23.8641Z" fill="var(--fill-0, #9C4DF4)"/>
</g>
</svg>
