<svg preserveAspectRatio="none" width="100%" height="100%" overflow="visible" style="display: block;" viewBox="0 0 120 120" fill="none" xmlns="http://www.w3.org/2000/svg">
<g id="save-money 1" clip-path="url(#clip0_523_2169)">
<g id="Group">
<path id="Vector" d="M102.657 73.7208C101.836 73.7208 101.088 73.796 100.466 73.9139L101.775 80.8221L101.744 80.828C101.755 80.8259 102.891 80.6384 104.074 80.9116C105.531 81.2477 105.989 82.0376 106.245 82.7662C107.42 86.1103 109.774 88.3945 112.874 89.198C114.215 89.5458 115.425 89.5446 117.001 89.2802C119.048 88.9366 120.379 86.933 119.903 84.9127C119.491 83.1591 117.771 82.0577 116.029 82.3905C115.645 82.4639 115.25 82.4655 114.862 82.4201C114.716 82.403 114.584 82.3795 114.493 82.3491C114.036 82.1967 113.371 81.8363 112.879 80.4352C111.004 75.101 106.169 73.7208 102.657 73.7208Z" fill="var(--fill-0, #FFBBA6)"/>
</g>
<path id="Vector_2" d="M103.282 62.9259L57.9776 35.1834C53.1748 35.5615 45.0073 36.8416 42.9134 37.3816C41.753 37.6809 40.5314 37.2473 39.807 36.293C36.143 31.466 30.3614 28.6024 24.1882 28.7116L16.7011 28.8441C14.877 28.8764 13.638 30.7099 14.2891 32.4145L19.1848 45.233C19.5638 46.2253 19.3055 47.3437 18.5386 48.0787C15.4481 51.0401 12.8262 55.338 11.1591 58.395C10.5905 59.4377 9.49852 60.0848 8.3107 60.0848H3.72703C1.66875 60.0846 0 61.7531 0 63.8116V80.0822C0 85.5841 4.46016 90.0443 9.96211 90.0443C12.312 98.793 18.143 104.344 22.3111 107.33V117.656C22.3111 118.95 23.3604 120 24.6546 120H34.9962C36.2904 120 37.3397 118.95 37.3397 117.656L37.3385 111.714C37.3385 111.714 56.7968 118.89 75.0956 111.759L75.097 117.656C75.097 118.95 76.1463 120 77.4405 120H87.5311C88.8253 120 89.8746 118.95 89.8746 117.656V110.792C89.8746 108.818 90.7226 106.929 92.2296 105.655C100.559 98.6154 105.849 88.0924 105.849 76.3327C105.849 71.8296 104.811 67.0116 103.282 62.9259Z" fill="var(--fill-0, #FFDDCD)"/>
<path id="Vector_3" d="M56.5043 37.3376V114.911C62.268 114.983 68.7513 114.231 75.0956 111.759L75.097 117.656C75.097 118.95 76.1463 120 77.4405 120H87.5311C88.8253 120 89.8746 118.95 89.8746 117.656V110.792C89.8746 108.818 90.7226 106.929 92.2296 105.655C100.559 98.6154 105.849 88.0924 105.849 76.3326C105.849 71.8298 104.811 67.0116 103.283 62.9259L56.5043 37.3376Z" fill="var(--fill-0, #FFCBBB)"/>
<path id="Vector_4" d="M23.8966 64.4346C25.8383 64.4346 27.4123 62.8606 27.4123 60.919C27.4123 58.9774 25.8383 57.4034 23.8966 57.4034C21.955 57.4034 20.381 58.9774 20.381 60.919C20.381 62.8606 21.955 64.4346 23.8966 64.4346Z" fill="var(--fill-0, #2E2E2E)"/>
<g id="Group_2">
<path id="Vector_5" d="M44.76 58.1667C43.3594 58.1667 42.0356 57.3241 41.4895 55.9427C40.7756 54.1371 41.6606 52.0948 43.4662 51.3809C53.6913 47.3381 58.5919 47.7016 68.1265 50.8462C69.9703 51.4544 70.9723 53.4422 70.3641 55.286C69.7559 57.1298 67.7693 58.1323 65.9243 57.5236C57.7043 54.813 54.5077 54.5766 46.0516 57.9195C45.6272 58.0873 45.1898 58.1667 44.76 58.1667Z" fill="var(--fill-0, #FFCBBB)"/>
</g>
<path id="Vector_6" d="M68.1265 50.8416C63.5524 49.3329 60.0448 48.4669 56.5043 48.4179V55.4508C59.2455 55.5026 62.0175 56.2305 65.9241 57.5189C67.7691 58.1276 69.7559 57.1252 70.3638 55.2813C70.9718 53.4375 69.9703 51.4498 68.1265 50.8416Z" fill="var(--fill-0, #FFBBA6)"/>
<g id="Group_3">
<path id="Vector_7" d="M86.8057 66.3888C105.138 66.3888 120 51.5272 120 33.1945C120 14.8618 105.138 0.000234375 86.8057 0.000234375C68.473 0.000234375 53.6114 14.8618 53.6114 33.1945C53.6114 51.5272 68.473 66.3888 86.8057 66.3888Z" fill="var(--fill-0, #FFF085)"/>
<path id="Vector_8" d="M86.8397 0.000234375V66.3879C105.157 66.3696 120 51.5154 120 33.1941C120 14.8727 105.157 0.0185156 86.8397 0.000234375Z" fill="var(--fill-0, #FFD700)"/>
</g>
<g id="Group_4">
<path id="Vector_9" d="M86.8057 53.8561C98.2168 53.8561 107.467 44.6056 107.467 33.1945C107.467 21.7835 98.2168 12.533 86.8057 12.533C75.3946 12.533 66.1441 21.7835 66.1441 33.1945C66.1441 44.6056 75.3946 53.8561 86.8057 53.8561Z" fill="var(--fill-0, #FFD700)"/>
<path id="Vector_10" d="M86.8268 12.533V53.8559C98.2282 53.8444 107.467 44.5985 107.467 33.1945C107.467 21.7905 98.2282 12.5442 86.8268 12.533Z" fill="var(--fill-0, #FFB139)"/>
</g>
</g>
<defs>
<clipPath id="clip0_523_2169">
<rect width="120" height="120" fill="white"/>
</clipPath>
</defs>
</svg>
