<svg preserveAspectRatio="none" width="100%" height="100%" overflow="visible" style="display: block;" viewBox="0 0 16 16" fill="none" xmlns="http://www.w3.org/2000/svg">
<g id="star (1) 1" clip-path="url(#clip0_523_2315)">
<path id="Vector" d="M15.9583 6.13753C15.8536 5.81354 15.5662 5.58343 15.2262 5.55279L10.6082 5.13347L8.78209 0.859314C8.64744 0.546073 8.34079 0.343309 8.00009 0.343309C7.65938 0.343309 7.35273 0.546073 7.21808 0.860046L5.39199 5.13347L0.773213 5.55279C0.433849 5.58417 0.147221 5.81354 0.0418712 6.13753C-0.0634782 6.46151 0.0338144 6.81686 0.290535 7.04087L3.78123 10.1022L2.7519 14.6364C2.67658 14.9698 2.80598 15.3144 3.0826 15.5144C3.23128 15.6218 3.40524 15.6765 3.58066 15.6765C3.73191 15.6765 3.88194 15.6357 4.01658 15.5551L8.00009 13.1743L11.9821 15.5551C12.2735 15.7304 12.6408 15.7144 12.9168 15.5144C13.1936 15.3138 13.3229 14.9691 13.2475 14.6364L12.2182 10.1022L15.7089 7.04148C15.9656 6.81686 16.0636 6.46212 15.9583 6.13753Z" fill="var(--fill-0, #FFC107)"/>
</g>
<defs>
<clipPath id="clip0_523_2315">
<rect width="16" height="16" fill="white"/>
</clipPath>
</defs>
</svg>
