<svg preserveAspectRatio="none" width="100%" height="100%" overflow="visible" style="display: block;" viewBox="0 0 121 119.765" fill="none" xmlns="http://www.w3.org/2000/svg">
<g id="Group">
<path id="Vector" d="M60.5 100.78C59.1572 100.78 57.9298 100.028 57.3295 98.8365C47.3384 79.0196 12.3885 85.643 12.0371 85.7123C10.1172 86.0897 8.25143 84.8541 7.86929 82.951C7.48715 81.0479 8.7307 79.1977 10.6494 78.8171C11.0557 78.7365 20.7277 76.8545 31.9756 77.8248C44.8421 78.9343 54.5754 83.3714 60.5 90.757C66.4247 83.3714 76.158 78.9345 89.0244 77.8248C100.272 76.8538 109.944 78.7367 110.351 78.8171C112.271 79.198 113.516 81.05 113.132 82.9538C112.747 84.8578 110.88 86.0916 108.961 85.7119C108.611 85.643 73.6617 79.0194 63.6706 98.8365C63.0703 100.028 61.8426 100.78 60.5 100.78Z" fill="var(--fill-0, #E2DFF4)"/>
<path id="Vector_2" d="M63.6706 98.8365C73.6614 79.0194 108.611 85.643 108.961 85.7119C110.88 86.0916 112.747 84.8578 113.132 82.9538C113.516 81.05 112.271 79.198 110.351 78.8171C109.944 78.7365 100.272 76.8538 89.0245 77.8248C76.158 78.9343 66.4247 83.3714 60.5 90.757V100.78C61.8426 100.78 63.0703 100.028 63.6706 98.8365Z" fill="var(--fill-0, #BEBCDD)"/>
<path id="Vector_3" d="M114.985 100.161C114.741 99.1932 114.094 98.3752 113.205 97.9065C111.861 97.201 81.0201 81.2778 60.5 93.0969C39.9799 81.2799 9.13954 97.2008 7.79485 97.9065C6.90627 98.3752 6.25874 99.1932 6.01532 100.161L2.8273 112.801L6.5929 115.451L45.9334 105.318C45.9334 105.318 61.0582 127.977 74.4935 105.318L118.173 116.48L118.328 112.841L114.985 100.161Z" fill="var(--fill-0, #F9F9F9)"/>
<path id="Vector_4" d="M118.173 112.802L114.985 100.161C114.741 99.1934 114.094 98.374 113.205 97.9072C111.86 97.2008 81.0208 81.279 60.5 93.0967V118.123C67.5451 118.123 73.8245 113.807 77.009 107.805L116.581 118.484L118.329 112.842L118.173 112.802Z" fill="var(--fill-0, #E2DFF4)"/>
<path id="Vector_5" d="M117.457 119.765C117.167 119.765 116.874 119.73 116.581 119.656L77.0092 109.68C73.8243 115.682 67.5449 119.529 60.5 119.529C53.4552 119.529 47.1756 115.682 43.9908 109.68L4.41895 119.656C2.52032 120.134 0.592143 118.996 0.11004 117.114C-0.372062 115.233 0.774822 113.319 2.67251 112.841L45.1992 102.121C47.0231 101.661 48.8887 102.693 49.4535 104.472C50.9787 109.273 55.4179 112.498 60.5 112.498C65.5822 112.498 70.0213 109.273 71.5466 104.472C72.1114 102.693 73.9774 101.662 75.8009 102.121L118.328 112.841C120.225 113.319 121.372 115.233 120.89 117.114C120.482 118.705 119.04 119.765 117.457 119.765Z" fill="var(--fill-0, #BC8173)"/>
<path id="Vector_6" d="M77.0092 109.68L116.581 119.656C116.874 119.729 117.167 119.765 117.457 119.765C119.039 119.765 120.482 118.705 120.89 117.114C121.372 115.233 120.225 113.319 118.327 112.841L75.8006 102.121C73.9772 101.662 72.1111 102.693 71.5463 104.472C70.0211 109.273 65.582 112.498 60.4998 112.498V119.53C67.5449 119.53 73.8245 115.682 77.0092 109.68Z" fill="var(--fill-0, #865240)"/>
<path id="Vector_7" d="M114.382 8.43741H111.31V5.39058C111.31 3.44904 109.723 1.875 107.765 1.875C105.807 1.875 104.22 3.44904 104.22 5.39058V8.43741H101.148C99.1902 8.43741 97.603 10.0115 97.603 11.953C97.603 13.8945 99.1902 15.4686 101.148 15.4686H104.22V18.5154C104.22 20.4569 105.807 22.031 107.765 22.031C109.723 22.031 111.31 20.4569 111.31 18.5154V15.4686H114.382C116.34 15.4686 117.927 13.8945 117.927 11.953C117.927 10.0115 116.34 8.43741 114.382 8.43741Z" fill="var(--fill-0, #31BEBE)"/>
<path id="Vector_8" d="M79.4074 68.9063C78.019 68.9063 76.7013 68.092 76.1339 66.7421C75.3807 64.9498 76.2355 62.8913 78.0424 62.1449L100.73 52.77C102.537 52.0226 104.612 52.8708 105.365 54.6628C106.118 56.455 105.264 58.5135 103.457 59.26L80.7694 68.6348C80.3237 68.8191 79.8617 68.9063 79.4074 68.9063Z" fill="var(--fill-0, #FABE2C)"/>
<path id="Vector_9" d="M68.0653 65.1563C67.7935 65.1563 67.5175 65.1249 67.2412 65.0597C65.3367 64.61 64.1605 62.7144 64.614 60.8256L74.067 21.4511C74.5205 19.5623 76.4307 18.3961 78.3364 18.8456C80.241 19.2954 81.4171 21.191 80.9636 23.0798L71.5106 62.4542C71.1231 64.069 69.6692 65.1563 68.0653 65.1563Z" fill="var(--fill-0, #FABE2C)"/>
<path id="Vector_10" d="M52.9331 65.1558C51.1973 65.1558 49.6808 63.8907 49.4282 62.1369L45.647 35.8872C45.3703 33.9652 46.7169 32.1844 48.6552 31.9097C50.5907 31.6346 52.3889 32.9707 52.6659 34.893L56.4471 61.1427C56.7238 63.0648 55.3772 64.8455 53.4389 65.1202C53.269 65.1441 53.1 65.1558 52.9331 65.1558Z" fill="var(--fill-0, #FED843)"/>
<path id="Vector_11" d="M37.8128 68.9053C36.9056 68.9053 35.9983 68.562 35.3064 67.8755L12.6192 45.3758C11.2348 44.0031 11.2348 41.777 12.6192 40.4041C14.0033 39.0313 16.248 39.0313 17.6323 40.4041L40.3195 62.9037C41.7039 64.2765 41.7039 66.5025 40.3195 67.8755C39.6271 68.562 38.7201 68.9053 37.8128 68.9053Z" fill="var(--fill-0, #FED843)"/>
<path id="Vector_12" d="M5.67271 67.0307C7.63051 67.0307 9.21763 65.4567 9.21763 63.515C9.21763 61.5734 7.63051 59.9994 5.67271 59.9994C3.7149 59.9994 2.12778 61.5734 2.12778 63.515C2.12778 65.4567 3.7149 67.0307 5.67271 67.0307Z" fill="var(--fill-0, #5ED8D3)"/>
<path id="Vector_13" d="M60.5001 18.2809C62.4579 18.2809 64.045 16.7069 64.045 14.7652C64.045 12.8236 62.4579 11.2496 60.5001 11.2496C58.5423 11.2496 56.9552 12.8236 56.9552 14.7652C56.9552 16.7069 58.5423 18.2809 60.5001 18.2809Z" fill="var(--fill-0, #FED843)"/>
<path id="Vector_14" d="M92.6403 38.9054C94.5981 38.9054 96.1852 37.3314 96.1852 35.3898C96.1852 33.4481 94.5981 31.8741 92.6403 31.8741C90.6825 31.8741 89.0953 33.4481 89.0953 35.3898C89.0953 37.3314 90.6825 38.9054 92.6403 38.9054Z" fill="var(--fill-0, #AD77E3)"/>
<path id="Vector_15" d="M64.045 14.7652C64.045 12.8234 62.4578 11.2496 60.5 11.2496V18.2809C62.4578 18.2809 64.045 16.7068 64.045 14.7652Z" fill="var(--fill-0, #FABE2C)"/>
<path id="Vector_16" d="M11.3445 22.0309C5.21986 22.0309 0.237183 17.0895 0.237183 11.0155C0.237183 4.94149 5.21986 0 11.3445 0C17.469 0 22.4517 4.94149 22.4517 11.0155C22.4517 17.0895 17.469 22.0309 11.3445 22.0309Z" fill="var(--fill-0, #FF6666)"/>
</g>
</svg>
