<svg preserveAspectRatio="none" width="100%" height="100%" overflow="visible" style="display: block;" viewBox="0 0 100.502 125.999" fill="none" xmlns="http://www.w3.org/2000/svg">
<g id="Group">
<path id="Vector" d="M95.392 52.0702C96.2782 50.76 96.796 49.1799 96.796 47.4789C96.796 43.5205 93.993 40.2171 90.2634 39.4444C89.9556 17.6078 72.1613 0 50.2513 0C28.3416 0 10.547 17.6078 10.2392 39.4446C6.50961 40.2171 3.70661 43.5205 3.70661 47.4791C3.70661 49.1801 4.22414 50.76 5.11057 52.0705C1.96648 55.0293 0.000433239 59.2257 0.000433239 63.8837C0.000433239 71.7654 5.62171 78.3319 13.0734 79.7989C12.3538 81.2823 11.95 82.9474 11.95 84.7067C11.95 90.9267 16.9922 95.9692 23.2122 95.9692H77.2904C83.5104 95.9692 88.5526 90.9267 88.5526 84.7067C88.5526 82.9471 88.1485 81.2823 87.4292 79.7989C94.8809 78.3319 100.502 71.7656 100.502 63.8837C100.502 59.2257 98.5361 55.0293 95.392 52.0702Z" fill="var(--fill-0, #596C76)"/>
<path id="Vector_2" d="M53.6885 95.9694H23.2125C20.1019 95.9694 17.2851 94.7094 15.247 92.671C13.2088 90.6326 11.9486 87.8186 11.9486 84.7079C11.9486 82.9486 12.3542 81.2828 13.0742 79.7998C9.34738 79.0672 6.0795 77.0566 3.7421 74.2477C1.40446 71.4361 0 67.8259 0 63.8837C0 59.2267 1.96481 55.0283 5.11087 52.0695C4.66717 51.4154 4.31476 50.6929 4.07654 49.9221C3.83562 49.1489 3.70642 48.3299 3.70642 47.4781C3.70642 43.5207 6.50795 40.2174 10.2397 39.4442C10.3945 28.525 14.9172 18.6655 22.145 11.5339C29.3703 4.40238 39.2958 0.00123809 50.2504 0.00123809C53.8148 0.00123809 57.2704 0.467832 60.5585 1.33974C53.7388 3.15493 47.6339 6.72206 42.7588 11.5339C35.5335 18.6655 31.0081 28.525 30.8535 39.4442C30.8535 39.4442 32.0355 47.7631 30.9967 48.6655L53.6885 95.9694Z" fill="var(--fill-0, #465A61)"/>
<path id="Vector_3" d="M74.5851 112.331V124.313C74.5851 125.246 73.8321 125.999 72.8991 125.999H27.6024C26.6746 125.999 25.9164 125.246 25.9164 124.313V112.331C25.9164 107.086 27.8027 102.284 30.931 98.5628C32.5712 96.6132 34.5538 94.9602 36.7849 93.695C39.8955 91.9281 43.4956 90.9191 47.3288 90.9191H53.1725C57.0108 90.9191 60.6082 91.9281 63.7215 93.6926C65.9499 94.9577 67.9325 96.6105 69.5702 98.5628C72.7013 102.284 74.5851 107.086 74.5851 112.331Z" fill="var(--fill-0, #97DA7B)"/>
<path id="Vector_4" d="M50.2511 116.886C49.201 116.886 48.3498 116.034 48.3498 114.984V100.249C48.3498 99.1987 49.201 98.3474 50.2511 98.3474C51.3012 98.3474 52.1524 99.1987 52.1524 100.249V114.984C52.1524 116.034 51.3012 116.886 50.2511 116.886Z" fill="var(--fill-0, #80D261)"/>
<path id="Vector_5" d="M56.9097 91.2452C46.8658 93.0114 39.2332 101.782 39.2332 112.332V125.999H27.6043C26.6729 125.999 25.9179 125.244 25.9179 124.312V112.332C25.9179 100.506 35.5042 90.9201 47.3295 90.9201H53.1745C54.448 90.9201 55.6974 91.0321 56.9097 91.2452Z" fill="var(--fill-0, #80D261)"/>
<path id="Vector_6" d="M63.7211 93.6935C63.6758 101.092 57.6603 107.078 50.2511 107.078C46.729 107.078 43.5269 105.725 41.1265 103.513C38.4755 101.073 36.808 97.5804 36.7839 93.696C38.9712 92.4518 41.4008 91.586 43.9824 91.1812V80.8391H56.6264V91.1972C59.1705 91.6074 61.5631 92.468 63.7211 93.6935Z" fill="var(--fill-0, #FFDFCF)"/>
<path id="Vector_7" d="M76.1055 43.7656C78.1202 42.7202 80.5209 42.4194 82.8699 43.0969C87.729 44.5009 90.5305 49.5817 89.1268 54.4438C87.7199 59.3029 81.7971 65.0249 76.9353 63.6179C76.5706 63.5116 76.2211 63.3686 75.8869 63.1895H24.6163C24.2821 63.3689 23.9326 63.5116 23.5679 63.6179C18.7058 65.0249 12.7833 59.3029 11.3794 54.4438C9.97246 49.5817 12.7742 44.5009 17.6331 43.0969C19.9821 42.4192 22.3827 42.7202 24.3975 43.7656H76.1055Z" fill="var(--fill-0, #FFCEBF)"/>
<path id="Vector_8" d="M76.1037 40.0193V59.8005C76.1037 71.8798 67.821 82.0221 56.6262 84.862C54.5853 85.3788 52.4514 85.6532 50.2509 85.6532C35.9737 85.6532 26.9332 74.0801 26.9332 59.8005L24.398 40.9758C24.398 39.5505 25.7488 38.5142 27.1235 38.8897C29.388 39.5079 32.9126 40.2218 37.1459 40.2351C44.2139 40.2538 53.2559 38.3143 61.6718 30.6869C62.4259 30.0023 63.6059 30.1728 64.1414 31.0386C65.5695 33.3457 68.7076 37.1422 74.1958 37.8748C75.2833 38.021 76.1037 38.9242 76.1037 40.0193Z" fill="var(--fill-0, #FFDFCF)"/>
<path id="Vector_9" d="M56.6264 84.862C54.5856 85.3788 52.4517 85.6532 50.2511 85.6532C35.974 85.6532 24.3982 74.0801 24.3982 59.8005V40.9758C24.3982 39.5505 25.749 38.5142 27.1237 38.8897C29.3883 39.5079 32.9128 40.2218 37.1461 40.2351V59.8005C37.1461 71.8796 45.4289 82.0245 56.6264 84.862Z" fill="var(--fill-0, #FFCEBF)"/>
<g id="Group_2">
<path id="Vector_10" d="M40.3013 53.0462C39.2512 53.0462 38.4 52.195 38.4 51.1449V47.7914C38.4 46.7413 39.2512 45.8901 40.3013 45.8901C41.3514 45.8901 42.2026 46.7413 42.2026 47.7914V51.1449C42.2026 52.1948 41.3514 53.0462 40.3013 53.0462Z" fill="var(--fill-0, #465A61)"/>
<path id="Vector_11" d="M60.2022 53.0462C59.1521 53.0462 58.3008 52.195 58.3008 51.1449V47.7914C58.3008 46.7413 59.1521 45.8901 60.2022 45.8901C61.2522 45.8901 62.1035 46.7413 62.1035 47.7914V51.1449C62.1035 52.1948 61.2522 53.0462 60.2022 53.0462Z" fill="var(--fill-0, #465A61)"/>
</g>
<path id="Vector_12" d="M21.8635 58.6422C20.8134 58.6422 19.9621 57.7909 19.9621 56.7409C19.9621 54.7433 18.617 52.9877 16.6908 52.4716C15.6764 52.1997 15.0747 51.157 15.3464 50.1428C15.6183 49.1284 16.6613 48.528 17.6752 48.7984C21.2608 49.7592 23.765 53.0253 23.765 56.7411C23.765 57.7907 22.9138 58.6422 21.8635 58.6422Z" fill="var(--fill-0, #FFB09E)"/>
<path id="Vector_13" d="M78.6398 58.6422C77.5897 58.6422 76.7384 57.7909 76.7384 56.7408C76.7384 53.0251 79.2427 49.7592 82.8283 48.7982C83.8432 48.5267 84.8854 49.1284 85.1571 50.1426C85.4287 51.157 84.8268 52.1997 83.8126 52.4714C81.8867 52.9874 80.5413 54.7431 80.5413 56.7406C80.5411 57.7907 79.6898 58.6422 78.6398 58.6422Z" fill="var(--fill-0, #FFB09E)"/>
<path id="Vector_14" d="M50.2516 69.5828C47.3356 69.5828 44.4197 68.4729 42.1999 66.2529C41.4572 65.5104 41.4572 64.3065 42.1999 63.5638C42.9424 62.8213 44.1463 62.8213 44.889 63.5638C47.846 66.5206 52.6572 66.5206 55.6145 63.5638C56.3569 62.8213 57.5608 62.8213 58.3035 63.5638C59.0463 64.3063 59.0463 65.5102 58.3035 66.2529C56.0835 68.4726 53.1676 69.5828 50.2516 69.5828Z" fill="var(--fill-0, #FE646F)"/>
<path id="Vector_15" d="M48.8257 81.9925V94.4739C45.4823 96.6932 42.7967 99.8235 41.1265 103.513C38.4755 101.073 36.808 97.5804 36.7839 93.696C38.9712 92.4518 41.4008 91.586 43.9824 91.1812V81.9925H48.8257Z" fill="var(--fill-0, #FFCEBF)"/>
</g>
</svg>
