<svg preserveAspectRatio="none" width="100%" height="100%" overflow="visible" style="display: block;" viewBox="0 0 21.8536 17.4559" fill="none" xmlns="http://www.w3.org/2000/svg">
<g id="Group">
<path id="Vector" d="M6.87271 17.4559C15.1198 17.4559 19.6298 10.7408 19.6298 4.91772C19.6298 4.72698 19.6258 4.53712 19.6171 4.34811C20.4926 3.72609 21.2535 2.94985 21.8536 2.06621C21.0503 2.41718 20.1857 2.65344 19.2788 2.75997C20.2045 2.21441 20.9152 1.35141 21.2505 0.322609C20.3842 0.827357 19.4248 1.19421 18.4034 1.39227C17.5852 0.535735 16.4204 0 15.1306 0C12.6546 0 10.6467 1.97349 10.6467 4.40609C10.6467 4.75189 10.686 5.08825 10.763 5.41089C7.03652 5.2266 3.73219 3.47308 1.52075 0.806735C1.13569 1.45796 0.913663 2.21444 0.913663 3.0216C0.913663 4.55046 1.70522 5.90014 2.90892 6.68972C2.17331 6.66738 1.48229 6.46891 0.878317 6.13857C0.877657 6.15706 0.877655 6.17509 0.877655 6.19485C0.877655 8.32899 2.42316 10.1108 4.47473 10.5146C4.09797 10.6155 3.70158 10.6697 3.29245 10.6697C3.00399 10.6697 2.72294 10.6418 2.44977 10.5902C3.02059 12.3411 4.67581 13.6153 6.63821 13.6509C5.10363 14.833 3.1705 15.5371 1.0695 15.5371C0.708037 15.5371 0.350951 15.5169 0 15.4761C1.98433 16.7262 4.34053 17.4556 6.87295 17.4556" fill="var(--fill-0, #1F1C14)"/>
</g>
</svg>
